<svg width="853" height="280" viewBox="0 0 853 280" fill="none" xmlns="http://www.w3.org/2000/svg">
<circle cx="140" cy="140" r="105" stroke="#50A59B" stroke-width="10"/>
<circle cx="140" cy="140" r="117.5" stroke="#50A59B" stroke-width="5"/>
<path d="M178.435 91.1192H181.85C183.021 92.6762 184.29 100.85 184.778 104.743C192.585 100.364 193.072 116.42 191.121 116.42C189.559 116.42 186.892 122.258 185.754 125.177L180.386 135.395V155.343L173.068 161.668V150.478C175.41 148.142 176.646 136.53 176.971 131.016C173.068 134.13 170.14 134.26 169.164 133.935C172.092 132.476 178.142 127.902 178.923 121.285C178.435 113.987 173.068 103.672 173.068 97.4443C155.502 90.0488 125.251 93.0654 113.541 97.4443L107.198 96.7632C120.859 87.2658 160.381 89.0433 178.435 91.1192Z" fill="#50A59B"/>
<path d="M115.004 132.962C99.3908 122.258 113.053 112.527 113.541 97.9309C112.37 97.1524 104.595 96.3091 100.855 95.9847V99.3905C103.294 98.4174 109.637 103.283 108.173 107.662C107.002 111.165 103.457 112.365 101.83 112.527L100.855 115.933C103.197 116.322 101.83 127.448 100.855 132.962L103.782 131.989C107.295 131.211 106.872 147.234 106.222 155.343C106.612 154.565 111.264 159.884 113.541 162.641V150.478C112.37 151.646 109.8 137.99 108.661 131.016C109.442 132.184 113.215 132.8 115.004 132.962Z" fill="#50A59B"/>
<path d="M101.343 112.527C92.5599 110.095 94.5115 101.337 100.855 99.3905L100.367 95.9847C92.1696 95.9847 90.7708 104.094 91.0961 108.148C66.6998 120.312 65.236 149.018 66.2119 155.83C70.1153 147.656 75.3198 143.991 77.4342 143.18C76.6535 151.354 81.3376 166.534 85.241 171.886C84.4603 163.323 90.4455 152.424 93.5357 148.045C93.6983 149.018 95.4874 153.397 100.855 152.424C105.867 151.515 106.71 147.072 106.222 143.666C101.928 152.229 96.9512 148.532 94.9995 145.612C96.5608 142.498 100.529 135.881 102.318 132.962H100.855C97.439 140.26 86.7047 149.505 84.2652 161.668C73.5308 140.747 83.2893 120.799 95.4875 114.473C91.5841 116.809 87.1927 131.016 87.6806 137.828C92.5599 129.07 97.9271 124.691 99.8788 116.42L100.367 115.933L101.343 112.527Z" fill="#50A59B"/>
<path d="M176.483 111.554L176.971 113.5C175.96 113.68 174.814 113.726 173.555 113.654C173.555 135.395 147.695 129.556 147.207 105.051C139.469 101.448 132.109 97.434 127.203 94.5251L130.13 94.0385C135.985 98.7093 167.7 112.72 176.483 111.554Z" fill="#50A59B"/>
<path d="M140.864 93.0654C145.939 98.904 159.406 102.31 173.555 102.796L173.068 100.85C165.261 101.239 159.08 98.7418 156.966 97.4444C159.698 97.4444 164.935 96.1469 167.212 95.4982C156.673 97.0551 150.46 94.5251 148.671 93.0654H140.864Z" fill="#50A59B"/>
<path d="M193.56 138.314C192.904 128.496 184.778 129.556 181.85 132.962L185.266 126.637C191.609 125.177 196 129.07 196 138.314C196 155.343 184.452 152.424 180.386 148.532V143.119C180.386 149.444 194.536 152.91 193.56 138.314Z" fill="#50A59B"/>
<path d="M106.222 96.4713L103.782 95.9847C107.686 41.9781 177.459 47.8167 181.85 90.6327H178.923L175.507 79.9287L146.72 81.8749C149.062 80.3179 165.911 77.0094 174.043 75.5498C162.723 59.9803 147.207 59.9803 139.889 60.4669L122.323 65.8189C112.955 68.9327 108.987 82.3614 108.173 88.6865C128.178 79.9287 136.473 77.9825 139.401 78.9556C120.664 84.4049 110.125 90.6327 107.198 93.0654L106.222 96.4713Z" fill="#50A59B"/>
<path d="M160.381 64.3592C144.994 69.2048 113.41 79.6482 109.682 82.8094C114.772 78.4088 130.588 68.1361 153.55 61.9265L160.381 64.3592Z" fill="#50A59B"/>
<path d="M139.889 109.608C129.642 111.068 121.347 100.85 114.516 112.041C117.119 110.581 123.397 108.343 127.69 111.068C125.739 111.068 121.998 113.014 120.372 113.987H133.546C138.23 110.873 139.726 109.77 139.889 109.608Z" fill="#50A59B"/>
<path d="M153.063 154.37H134.033C150.037 166.826 135.009 174.319 126.715 168.967C125.934 168.188 124.763 172.859 124.275 175.292C131.106 179.671 135.777 201.079 134.521 203.025C133.265 204.971 134.033 208.377 134.521 209.35C134.912 210.128 134.359 211.945 134.033 212.756C130.911 215.48 132.732 219.729 134.033 221.513C135.335 220.54 138.034 218.108 138.425 216.161C138.815 214.215 136.961 212.756 135.985 212.269V209.35L136.961 206.431C137.449 204.971 136.473 203.998 135.985 203.025C135.595 202.246 135.823 196.862 135.985 194.267C138.718 178.308 151.599 185.509 150.623 194.753C150.786 196.862 150.818 201.662 149.647 203.998C148.476 206.333 149.159 208.215 149.647 208.863C150.48 209.35 151.647 210.809 149.647 212.756C147.148 215.188 148.183 216.648 148.183 217.621C148.183 218.4 151.111 220.865 152.575 222C152.9 221.676 153.843 220.346 155.014 217.621C156.185 214.896 153.876 213.567 152.575 213.242C152.249 212.269 151.794 209.934 152.575 208.377C153.355 206.82 152.9 205.133 152.575 204.484V194.753C152.575 188.136 159.406 178.373 162.821 174.319L159.894 168.967C139.889 176.751 143.792 156.316 153.063 154.37Z" fill="#50A59B"/>
<path d="M115.98 164.101C117.542 171.497 111.426 178.535 108.173 181.13C117.932 181.519 121.998 169.615 122.811 163.615C123.982 164.782 123.299 169.615 122.811 171.886C127.105 167.604 127.203 156.479 126.715 151.451C126.324 148.726 128.504 147.721 129.642 147.559H155.014C158.527 147.559 159.406 150.153 159.406 151.451C158.625 167.41 162.658 172.048 164.773 172.372C163.992 171.205 162.821 166.047 164.285 163.615C164.285 174.902 177.459 181.617 178.923 181.13C170.335 176.459 170.14 162.317 171.116 155.83C169.164 155.051 168.026 150.64 167.7 148.532L171.116 151.451C167.212 135.395 150.135 137.665 143.792 141.233L142.816 140.747C124.08 133.351 116.793 145.45 115.492 152.424C116.663 148.921 117.932 148.369 118.42 148.532L119.396 149.991C117.607 151.613 114.419 156.706 115.98 164.101Z" fill="#50A59B"/>
<path d="M100.855 132.962L103.782 131.989C107.295 131.211 106.872 147.234 106.222 155.343C106.612 154.565 111.264 159.884 113.541 162.641V150.478C112.37 151.646 109.8 137.99 108.661 131.016C109.442 132.184 113.215 132.8 115.004 132.962C99.3908 122.258 113.053 112.527 113.541 97.9309C112.37 97.1524 104.595 96.3091 100.855 95.9847V99.3905M100.855 132.962C101.83 127.448 103.197 116.322 100.855 115.933L101.83 112.527C103.457 112.365 107.002 111.165 108.173 107.662C109.637 103.283 103.294 98.4174 100.855 99.3905M100.855 132.962C97.439 140.26 86.7047 149.505 84.2652 161.668C73.5308 140.747 83.2893 120.799 95.4875 114.473C91.5841 116.809 87.1927 131.016 87.6806 137.828C92.5599 129.07 97.9271 124.691 99.8788 116.42L100.367 115.933L101.343 112.527C92.5599 110.095 94.5115 101.337 100.855 99.3905M100.855 132.962H102.318C100.529 135.881 96.5608 142.498 94.9995 145.612C96.9512 148.532 101.928 152.229 106.222 143.666C106.71 147.072 105.867 151.515 100.855 152.424C95.4874 153.397 93.6983 149.018 93.5357 148.045C90.4455 152.424 84.4603 163.323 85.241 171.886C81.3376 166.534 76.6535 151.354 77.4342 143.18C75.3198 143.991 70.1153 147.656 66.2119 155.83C65.236 149.018 66.6998 120.312 91.0961 108.148C90.7708 104.094 92.1696 95.9847 100.367 95.9847L100.855 99.3905M147.207 105.051C139.469 101.448 132.109 97.434 127.203 94.5251L130.13 94.0385C135.985 98.7093 167.7 112.72 176.483 111.554L176.971 113.5C175.96 113.68 174.814 113.726 173.555 113.654M147.207 105.051C156.697 109.469 166.755 113.268 173.555 113.654M147.207 105.051C147.695 129.556 173.555 135.395 173.555 113.654M109.682 82.8094C113.41 79.6482 144.994 69.2048 160.381 64.3592L153.55 61.9265C130.588 68.1361 114.772 78.4088 109.682 82.8094ZM109.682 82.8094C109.666 82.8224 109.652 82.8352 109.637 82.848M181.85 91.1192H178.435C160.381 89.0433 120.859 87.2658 107.198 96.7632L113.541 97.4443C125.251 93.0654 155.502 90.0488 173.068 97.4443C173.068 103.672 178.435 113.987 178.923 121.285C178.142 127.902 172.092 132.476 169.164 133.935C170.14 134.26 173.068 134.13 176.971 131.016C176.646 136.53 175.41 148.142 173.068 150.478V161.668L180.386 155.343V135.395L185.754 125.177C186.892 122.258 189.559 116.42 191.121 116.42C193.072 116.42 192.585 100.364 184.778 104.743C184.29 100.85 183.021 92.6762 181.85 91.1192ZM173.555 102.796C159.406 102.31 145.939 98.904 140.864 93.0654H148.671C150.46 94.5251 156.673 97.0551 167.212 95.4982C164.935 96.1469 159.698 97.4444 156.966 97.4444C159.08 98.7418 165.261 101.239 173.068 100.85L173.555 102.796ZM181.85 132.962C184.778 129.556 192.904 128.496 193.56 138.314C194.536 152.91 180.386 149.444 180.386 143.119V148.532C184.452 152.424 196 155.343 196 138.314C196 129.07 191.609 125.177 185.266 126.637L181.85 132.962ZM103.782 95.9847L106.222 96.4713L107.198 93.0654C110.125 90.6327 120.664 84.4049 139.401 78.9556C136.473 77.9825 128.178 79.9287 108.173 88.6865C108.987 82.3614 112.955 68.9327 122.323 65.8189L139.889 60.4669C147.207 59.9803 162.723 59.9803 174.043 75.5498C165.911 77.0094 149.062 80.3179 146.72 81.8749L175.507 79.9287L178.923 90.6327H181.85C177.459 47.8167 107.686 41.9781 103.782 95.9847ZM114.516 112.041C121.347 100.85 129.642 111.068 139.889 109.608C139.726 109.77 138.23 110.873 133.546 113.987H120.372C121.998 113.014 125.739 111.068 127.69 111.068C123.397 108.343 117.119 110.581 114.516 112.041ZM134.033 154.37H153.063C143.792 156.316 139.889 176.751 159.894 168.967L162.821 174.319C159.406 178.373 152.575 188.136 152.575 194.753V204.484C152.9 205.133 153.355 206.82 152.575 208.377C151.794 209.934 152.249 212.269 152.575 213.242C153.876 213.567 156.185 214.896 155.014 217.621C153.843 220.346 152.9 221.676 152.575 222C151.111 220.865 148.183 218.4 148.183 217.621C148.183 216.648 147.148 215.188 149.647 212.756C151.647 210.809 150.48 209.35 149.647 208.863C149.159 208.215 148.476 206.333 149.647 203.998C150.818 201.662 150.786 196.862 150.623 194.753C151.599 185.509 138.718 178.308 135.985 194.267C135.823 196.862 135.595 202.246 135.985 203.025C136.473 203.998 137.449 204.971 136.961 206.431L135.985 209.35V212.269C136.961 212.756 138.815 214.215 138.425 216.161C138.034 218.108 135.335 220.54 134.033 221.513C132.732 219.729 130.911 215.48 134.033 212.756C134.359 211.945 134.912 210.128 134.521 209.35C134.033 208.377 133.265 204.971 134.521 203.025C135.777 201.079 131.106 179.671 124.275 175.292C124.763 172.859 125.934 168.188 126.715 168.967C135.009 174.319 150.037 166.826 134.033 154.37ZM108.173 181.13C111.426 178.535 117.542 171.497 115.98 164.101C114.419 156.706 117.607 151.613 119.396 149.991L118.42 148.532C117.932 148.369 116.663 148.921 115.492 152.424C116.793 145.45 124.08 133.351 142.816 140.747L143.792 141.233C150.135 137.665 167.212 135.395 171.116 151.451L167.7 148.532C168.026 150.64 169.164 155.051 171.116 155.83C170.14 162.317 170.335 176.459 178.923 181.13C177.459 181.617 164.285 174.902 164.285 163.615C162.821 166.047 163.992 171.205 164.773 172.372C162.658 172.048 158.625 167.41 159.406 151.451C159.406 150.153 158.527 147.559 155.014 147.559H129.642C128.504 147.721 126.324 148.726 126.715 151.451C127.203 156.479 127.105 167.604 122.811 171.886C123.299 169.615 123.982 164.782 122.811 163.615C121.998 169.615 117.932 181.519 108.173 181.13Z" stroke="#50A59B"/>
<path d="M354.697 141.6C352.764 134.533 351.164 128.7 349.897 124.1C348.697 119.5 347.731 115.8 346.997 113C346.264 110.2 345.697 108.133 345.297 106.8C344.964 105.467 344.697 104.533 344.497 104L332.397 145C333.531 145.133 334.597 145.233 335.597 145.3C336.597 145.367 337.531 145.4 338.397 145.4C340.531 145.4 342.931 145.167 345.597 144.7C348.264 144.233 351.297 143.2 354.697 141.6ZM372.097 167.1C372.631 169.033 373.931 170.467 375.997 171.4C378.064 172.333 380.597 172.8 383.597 172.8V177C382.797 177 381.797 176.967 380.597 176.9C379.464 176.767 378.197 176.633 376.797 176.5C375.464 176.367 374.064 176.267 372.597 176.2C371.197 176.067 369.864 176 368.597 176C367.264 176 365.797 176.067 364.197 176.2C362.597 176.267 360.997 176.367 359.397 176.5C357.864 176.633 356.397 176.767 354.997 176.9C353.664 176.967 352.597 177 351.797 177V172.8C352.797 172.8 353.864 172.767 354.997 172.7C356.131 172.633 357.164 172.467 358.097 172.2C359.097 171.867 359.897 171.433 360.497 170.9C361.164 170.3 361.497 169.5 361.497 168.5C361.497 168.233 361.431 167.833 361.297 167.3C361.231 166.767 360.997 165.767 360.597 164.3C360.197 162.833 359.631 160.767 358.897 158.1C358.231 155.367 357.297 151.7 356.097 147.1C352.097 148.5 348.564 149.433 345.497 149.9C342.497 150.367 339.731 150.6 337.197 150.6C336.264 150.6 335.264 150.567 334.197 150.5C333.131 150.433 332.031 150.333 330.897 150.2L327.297 163.2C326.964 164.267 326.697 165.2 326.497 166C326.297 166.733 326.231 167.367 326.297 167.9C326.297 169.1 326.597 170.033 327.197 170.7C327.864 171.3 328.697 171.767 329.697 172.1C330.697 172.433 331.797 172.633 332.997 172.7C334.264 172.767 335.497 172.8 336.697 172.8V177C335.897 177 334.897 176.967 333.697 176.9C332.497 176.767 331.164 176.633 329.697 176.5C328.297 176.367 326.864 176.267 325.397 176.2C323.931 176.067 322.564 176 321.297 176C318.764 176 316.264 176.167 313.797 176.5C311.397 176.833 309.431 177 307.897 177V172.8C310.897 172.8 313.331 172.333 315.197 171.4C317.131 170.467 318.397 169.033 318.997 167.1L324.697 149C320.897 147.867 317.664 146.1 314.997 143.7C312.397 141.233 311.097 138.033 311.097 134.1C311.097 133.033 311.197 132.267 311.397 131.8C311.664 131.333 312.031 130.9 312.497 130.5C311.431 129.233 310.897 127.667 310.897 125.8C310.897 124.667 311.097 123.567 311.497 122.5C311.964 121.367 312.564 120.4 313.297 119.6C314.097 118.733 315.031 118.067 316.097 117.6C317.164 117.067 318.364 116.8 319.697 116.8C320.364 116.8 320.964 116.9 321.497 117.1C322.097 117.233 322.631 117.467 323.097 117.8C323.631 118.067 324.164 118.467 324.697 119C325.297 119.467 325.964 120 326.697 120.6C324.164 121.667 322.331 123.267 321.197 125.4C320.064 127.533 319.497 129.767 319.497 132.1C319.497 135.3 320.164 137.8 321.497 139.6C322.831 141.4 324.464 142.733 326.397 143.6L341.397 98.4C344.797 98.4 348.264 98.0333 351.797 97.3C355.331 96.5667 358.697 95.8 361.897 95L363.897 98.5C362.497 98.7667 361.331 99.0667 360.397 99.4C359.531 99.6667 358.831 100.033 358.297 100.5C357.831 100.9 357.497 101.433 357.297 102.1C357.164 102.7 357.097 103.467 357.097 104.4C357.097 105.067 357.131 105.9 357.197 106.9C357.331 107.9 357.564 109.333 357.897 111.2C358.297 113 358.831 115.333 359.497 118.2C360.164 121.067 361.031 124.733 362.097 129.2C363.231 133.6 364.597 138.9 366.197 145.1C367.864 151.3 369.831 158.633 372.097 167.1ZM399.788 167.1C399.788 168.433 399.988 169.533 400.388 170.4C400.855 171.267 401.388 171.967 401.988 172.5C402.655 173.033 403.388 173.433 404.188 173.7C405.055 173.9 405.888 174 406.688 174V177C405.888 177 404.988 176.967 403.988 176.9C403.055 176.767 402.055 176.633 400.988 176.5C399.921 176.367 398.888 176.267 397.888 176.2C396.955 176.067 396.088 176 395.288 176C394.488 176 393.588 176.067 392.588 176.2C391.655 176.267 390.655 176.367 389.588 176.5C388.521 176.633 387.488 176.767 386.488 176.9C385.555 176.967 384.688 177 383.888 177V174C385.688 174 387.288 173.5 388.688 172.5C390.088 171.5 390.788 169.7 390.788 167.1V115.3C390.788 112.833 390.721 110.8 390.588 109.2C390.521 107.533 390.255 106.267 389.788 105.4C389.321 104.467 388.655 103.833 387.788 103.5C386.921 103.1 385.721 102.9 384.188 102.9V100.4C385.855 100.4 387.288 100.3 388.488 100.1C389.755 99.9 390.888 99.6 391.888 99.2C392.888 98.8 393.788 98.3333 394.588 97.8C395.455 97.2667 396.355 96.7 397.288 96.1H399.788V138.2C400.455 137.133 401.255 136.133 402.188 135.2C403.121 134.2 404.221 133.333 405.488 132.6C406.755 131.867 408.221 131.3 409.888 130.9C411.555 130.433 413.488 130.2 415.688 130.2C418.488 130.2 420.988 130.633 423.188 131.5C425.388 132.367 427.221 133.767 428.688 135.7C430.221 137.567 431.355 140.033 432.088 143.1C432.888 146.1 433.288 149.767 433.288 154.1V166C433.288 170.267 433.421 173.7 433.688 176.3C434.021 178.9 434.421 180.9 434.888 182.3C435.421 183.7 436.021 184.633 436.688 185.1C437.421 185.567 438.155 185.8 438.888 185.8C439.621 185.8 440.288 185.733 440.888 185.6C441.488 185.533 442.155 185.233 442.888 184.7L443.388 185.1C442.655 186.9 441.555 188.333 440.088 189.4C438.621 190.533 437.021 191.1 435.288 191.1C433.555 191.1 432.021 190.567 430.688 189.5C429.355 188.433 428.688 187 428.688 185.2C427.821 184.733 427.088 184.233 426.488 183.7C425.955 183.233 425.521 182.533 425.188 181.6C424.855 180.667 424.621 179.4 424.488 177.8C424.355 176.267 424.288 174.2 424.288 171.6V156.3C424.288 152.1 424.055 148.633 423.588 145.9C423.121 143.167 422.455 141 421.588 139.4C420.721 137.733 419.655 136.567 418.388 135.9C417.188 135.233 415.855 134.9 414.388 134.9C412.855 134.9 411.221 135.233 409.488 135.9C407.755 136.5 406.155 137.533 404.688 139C403.288 140.4 402.121 142.267 401.188 144.6C400.255 146.867 399.788 149.633 399.788 152.9V167.1ZM467.684 178.4C464.351 178.4 461.251 177.833 458.384 176.7C455.584 175.5 453.117 173.833 450.984 171.7C448.851 169.567 447.184 167 445.984 164C444.784 161 444.184 157.633 444.184 153.9C444.184 150.1 444.784 146.733 445.984 143.8C447.184 140.867 448.851 138.4 450.984 136.4C453.117 134.333 455.584 132.8 458.384 131.8C461.251 130.733 464.351 130.2 467.684 130.2C470.951 130.2 474.017 130.733 476.884 131.8C479.751 132.8 482.251 134.333 484.384 136.4C486.517 138.4 488.184 140.867 489.384 143.8C490.584 146.733 491.184 150.1 491.184 153.9C491.184 157.7 490.584 161.1 489.384 164.1C488.184 167.1 486.517 169.667 484.384 171.8C482.251 173.933 479.751 175.567 476.884 176.7C474.017 177.833 470.951 178.4 467.684 178.4ZM467.784 173.8C470.251 173.8 472.351 173.267 474.084 172.2C475.817 171.133 477.251 169.7 478.384 167.9C479.517 166.033 480.351 163.9 480.884 161.5C481.417 159.1 481.684 156.567 481.684 153.9C481.684 151.3 481.417 148.833 480.884 146.5C480.351 144.167 479.517 142.167 478.384 140.5C477.251 138.767 475.784 137.4 473.984 136.4C472.251 135.4 470.151 134.9 467.684 134.9C465.217 134.9 463.084 135.4 461.284 136.4C459.551 137.333 458.117 138.667 456.984 140.4C455.851 142.067 455.017 144.067 454.484 146.4C453.951 148.733 453.684 151.233 453.684 153.9C453.684 156.567 453.951 159.1 454.484 161.5C455.017 163.9 455.851 166.033 456.984 167.9C458.184 169.7 459.651 171.133 461.384 172.2C463.184 173.267 465.317 173.8 467.784 173.8ZM503.66 154.4C503.593 150.8 503.493 147.967 503.36 145.9C503.293 143.767 503.06 142.167 502.66 141.1C502.26 139.967 501.626 139.267 500.76 139C499.893 138.667 498.66 138.5 497.06 138.5V135.5C498.726 135.5 500.126 135.4 501.26 135.2C502.46 135 503.526 134.7 504.46 134.3C505.393 133.9 506.26 133.433 507.06 132.9C507.86 132.367 508.726 131.8 509.66 131.2H512.66V152.3C512.66 156.3 512.893 159.667 513.36 162.4C513.826 165.133 514.493 167.333 515.36 169C516.293 170.667 517.36 171.867 518.56 172.6C519.826 173.333 521.226 173.7 522.76 173.7C524.226 173.7 525.693 173.4 527.16 172.8C528.626 172.133 529.96 171.1 531.16 169.7C532.36 168.233 533.326 166.367 534.06 164.1C534.793 161.833 535.16 159.067 535.16 155.8V150.9C535.16 148.433 535.093 146.4 534.96 144.8C534.893 143.133 534.626 141.867 534.16 141C533.693 140.067 533.026 139.433 532.16 139.1C531.293 138.7 530.093 138.5 528.56 138.5V135.5C530.226 135.5 531.626 135.4 532.76 135.2C533.96 135 535.026 134.7 535.96 134.3C536.893 133.9 537.76 133.433 538.56 132.9C539.36 132.367 540.226 131.8 541.16 131.2H544.16V180.3C544.16 188.033 542.393 193.567 538.86 196.9C535.326 200.3 529.826 202 522.36 202C518.093 202 514.826 201.567 512.56 200.7C510.36 199.833 509.26 198.733 509.26 197.4C507.526 197.4 506.293 196.8 505.56 195.6C504.826 194.467 504.46 193.3 504.46 192.1C504.46 190.967 504.726 189.967 505.26 189.1C505.793 188.3 506.46 187.633 507.26 187.1C508.06 186.567 508.893 186.167 509.76 185.9C510.693 185.633 511.526 185.5 512.26 185.5C512.26 187.167 512.46 188.7 512.86 190.1C513.26 191.567 513.893 192.833 514.76 193.9C515.693 195.033 516.86 195.9 518.26 196.5C519.66 197.167 521.36 197.5 523.36 197.5C525.16 197.5 526.76 197.2 528.16 196.6C529.626 196 530.86 195 531.86 193.6C532.926 192.2 533.726 190.367 534.26 188.1C534.86 185.833 535.16 183.033 535.16 179.7V170.4C534.493 171.533 533.76 172.6 532.96 173.6C532.226 174.533 531.293 175.367 530.16 176.1C529.093 176.767 527.793 177.3 526.26 177.7C524.793 178.167 523.026 178.4 520.96 178.4C517.693 178.4 514.96 177.9 512.76 176.9C510.626 175.833 508.86 174.3 507.46 172.3C506.126 170.233 505.16 167.7 504.56 164.7C504.026 161.7 503.726 158.267 503.66 154.4ZM615.898 165.9C615.898 167.5 616.198 168.767 616.798 169.7C617.465 170.633 618.231 171.333 619.098 171.8C620.031 172.2 620.998 172.467 621.998 172.6C623.065 172.733 623.998 172.8 624.798 172.8V177C623.998 177 622.998 176.967 621.798 176.9C620.598 176.767 619.365 176.633 618.098 176.5C616.831 176.367 615.598 176.267 614.398 176.2C613.198 176.067 612.198 176 611.398 176C610.598 176 609.598 176.067 608.398 176.2C607.198 176.267 605.965 176.367 604.698 176.5C603.431 176.633 602.198 176.767 600.998 176.9C599.798 176.967 598.798 177 597.998 177V172.8C598.865 172.8 599.831 172.733 600.898 172.6C601.965 172.467 602.931 172.2 603.798 171.8C604.665 171.333 605.398 170.633 605.998 169.7C606.598 168.767 606.898 167.5 606.898 165.9V126.3C606.898 123.833 606.831 121.8 606.698 120.2C606.631 118.533 606.365 117.267 605.898 116.4C605.431 115.467 604.765 114.833 603.898 114.5C603.031 114.1 601.831 113.9 600.298 113.9V110.4C601.965 110.4 603.398 110.3 604.598 110.1C605.865 109.9 606.998 109.6 607.998 109.2C608.998 108.8 609.898 108.333 610.698 107.8C611.565 107.267 612.465 106.7 613.398 106.1H615.898V165.9ZM617.398 95C624.865 95 631.198 96.2333 636.398 98.7C641.598 101.167 645.798 104.567 648.998 108.9C652.265 113.167 654.598 118.233 655.998 124.1C657.465 129.9 658.198 136.167 658.198 142.9C658.198 151.233 657.198 158.467 655.198 164.6C653.198 170.733 650.265 175.833 646.398 179.9C642.531 183.967 637.798 186.967 632.198 188.9C626.665 190.9 620.365 191.9 613.298 191.9C609.498 191.9 605.798 191.6 602.198 191C598.665 190.4 595.531 189.5 592.798 188.3C590.065 187.1 587.865 185.6 586.198 183.8C584.531 182.067 583.698 180.067 583.698 177.8C583.698 176.2 584.198 175.233 585.198 174.9C584.865 174.7 584.498 174.267 584.098 173.6C583.698 172.933 583.331 172.133 582.998 171.2C582.665 170.2 582.365 169.1 582.098 167.9C581.831 166.633 581.698 165.367 581.698 164.1C581.698 163.1 581.798 161.967 581.998 160.7C582.265 159.367 582.731 158.1 583.398 156.9C584.131 155.633 585.131 154.5 586.398 153.5C587.731 152.5 589.465 151.8 591.598 151.4L592.198 151.9C591.465 153.567 590.965 155.367 590.698 157.3C590.498 159.167 590.398 160.967 590.398 162.7C590.398 166.433 590.798 169.633 591.598 172.3C592.465 174.967 593.565 177.2 594.898 179C596.231 180.8 597.731 182.233 599.398 183.3C601.131 184.367 602.865 185.167 604.598 185.7C606.398 186.3 608.131 186.667 609.798 186.8C611.531 187 613.031 187.1 614.298 187.1C620.298 187.1 625.398 186.1 629.598 184.1C633.865 182.167 637.331 179.333 639.998 175.6C642.665 171.8 644.598 167.167 645.798 161.7C647.065 156.233 647.698 150 647.698 143C647.698 137.467 647.165 132.1 646.098 126.9C645.031 121.7 643.265 117.1 640.798 113.1C638.331 109.1 635.065 105.9 630.998 103.5C626.998 101.033 622.065 99.8 616.198 99.8C611.198 99.8 607.098 100.567 603.898 102.1C600.698 103.567 598.131 105.567 596.198 108.1C594.331 110.567 593.031 113.4 592.298 116.6C591.565 119.733 591.198 123 591.198 126.4C588.065 126.4 585.831 125.7 584.498 124.3C583.165 122.833 582.498 121.067 582.498 119C582.498 117.067 582.965 115.467 583.898 114.2C584.898 112.867 586.031 112.2 587.298 112.2C586.765 111.667 586.431 110.967 586.298 110.1C586.165 109.167 586.098 108.433 586.098 107.9C586.098 105.633 587.031 103.7 588.898 102.1C590.831 100.433 593.298 99.1 596.298 98.1C599.365 97.0333 602.731 96.2667 606.398 95.8C610.131 95.2667 613.798 95 617.398 95ZM672.005 115.4C672.005 113.4 672.705 111.733 674.105 110.4C675.505 109 677.172 108.3 679.105 108.3C681.038 108.3 682.672 109 684.005 110.4C685.405 111.733 686.105 113.4 686.105 115.4C686.105 117.4 685.405 119.1 684.005 120.5C682.672 121.833 681.038 122.5 679.105 122.5C677.172 122.5 675.505 121.833 674.105 120.5C672.705 119.1 672.005 117.4 672.005 115.4ZM683.305 167.1C683.305 168.433 683.505 169.533 683.905 170.4C684.372 171.267 684.905 171.967 685.505 172.5C686.172 173.033 686.905 173.433 687.705 173.7C688.572 173.9 689.405 174 690.205 174V177C689.405 177 688.505 176.967 687.505 176.9C686.572 176.767 685.572 176.633 684.505 176.5C683.438 176.367 682.405 176.267 681.405 176.2C680.472 176.067 679.605 176 678.805 176C678.005 176 677.105 176.067 676.105 176.2C675.172 176.267 674.172 176.367 673.105 176.5C672.038 176.633 671.005 176.767 670.005 176.9C669.072 176.967 668.205 177 667.405 177V174C669.205 174 670.805 173.5 672.205 172.5C673.605 171.5 674.305 169.7 674.305 167.1V149.9C674.305 147.433 674.238 145.4 674.105 143.8C674.038 142.133 673.772 140.867 673.305 140C672.838 139.067 672.172 138.433 671.305 138.1C670.438 137.7 669.238 137.5 667.705 137.5V134.5C669.372 134.5 670.772 134.4 671.905 134.2C673.105 134 674.172 133.7 675.105 133.3C676.038 132.9 676.905 132.433 677.705 131.9C678.505 131.367 679.372 130.8 680.305 130.2H683.305V167.1ZM730.325 139.5C730.325 142.033 729.459 143.9 727.725 145.1C726.059 146.233 724.159 146.8 722.025 146.8L721.725 146.3C722.192 146.1 722.692 145.6 723.225 144.8C723.759 144 724.025 142.933 724.025 141.6C724.025 139.333 723.192 137.667 721.525 136.6C719.859 135.467 717.659 134.9 714.925 134.9C714.259 134.9 713.459 134.967 712.525 135.1C711.592 135.233 710.692 135.533 709.825 136C708.959 136.467 708.192 137.133 707.525 138C706.925 138.867 706.625 140 706.625 141.4C706.625 143.267 707.259 144.733 708.525 145.8C709.792 146.867 711.359 147.767 713.225 148.5C715.159 149.233 717.225 149.933 719.425 150.6C721.625 151.267 723.659 152.133 725.525 153.2C727.459 154.267 729.059 155.667 730.325 157.4C731.592 159.133 732.225 161.433 732.225 164.3C732.225 168.967 730.459 172.5 726.925 174.9C723.459 177.233 718.859 178.4 713.125 178.4C712.725 178.4 712.092 178.367 711.225 178.3C710.359 178.3 709.492 178.233 708.625 178.1C707.825 177.967 707.092 177.767 706.425 177.5C705.759 177.233 705.425 176.833 705.425 176.3C702.625 176.3 700.525 175.567 699.125 174.1C697.725 172.633 697.025 170.767 697.025 168.5C697.025 166.033 697.725 164.267 699.125 163.2C700.592 162.133 702.259 161.533 704.125 161.4L704.325 161.7C703.792 162.3 703.459 163.1 703.325 164.1C703.192 165.033 703.125 165.767 703.125 166.3C703.125 167.767 703.459 169 704.125 170C704.792 170.933 705.625 171.7 706.625 172.3C707.625 172.833 708.725 173.233 709.925 173.5C711.192 173.7 712.425 173.8 713.625 173.8C713.892 173.8 714.492 173.767 715.425 173.7C716.425 173.633 717.425 173.4 718.425 173C719.425 172.533 720.325 171.833 721.125 170.9C721.925 169.9 722.325 168.533 722.325 166.8C722.325 164.733 721.725 163.1 720.525 161.9C719.325 160.7 717.792 159.7 715.925 158.9C714.125 158.1 712.159 157.367 710.025 156.7C707.892 155.967 705.892 155.1 704.025 154.1C702.225 153.1 700.725 151.8 699.525 150.2C698.325 148.533 697.725 146.333 697.725 143.6C697.725 140.867 698.325 138.633 699.525 136.9C700.725 135.167 702.225 133.8 704.025 132.8C705.825 131.8 707.725 131.133 709.725 130.8C711.792 130.4 713.659 130.2 715.325 130.2C717.459 130.2 719.092 130.4 720.225 130.8C721.359 131.2 721.925 131.767 721.925 132.5C722.925 132.5 723.925 132.633 724.925 132.9C725.925 133.1 726.825 133.467 727.625 134C728.425 134.533 729.059 135.267 729.525 136.2C730.059 137.067 730.325 138.167 730.325 139.5ZM763.871 130.2C764.537 130.2 765.304 130.233 766.171 130.3C767.104 130.3 767.971 130.4 768.771 130.6C769.637 130.8 770.371 131.133 770.971 131.6C771.571 132 771.871 132.6 771.871 133.4C774.204 133.4 776.004 133.933 777.271 135C778.604 136 779.271 137.667 779.271 140C779.271 141.333 779.037 142.5 778.571 143.5C778.104 144.433 777.504 145.2 776.771 145.8C776.037 146.4 775.204 146.867 774.271 147.2C773.337 147.467 772.404 147.6 771.471 147.6C771.071 147.6 770.571 147.6 769.971 147.6C769.437 147.533 768.971 147.433 768.571 147.3V146.9C769.504 146.567 770.237 146 770.771 145.2C771.304 144.333 771.571 143.167 771.571 141.7C771.571 139.7 770.937 138.067 769.671 136.8C768.471 135.533 766.471 134.9 763.671 134.9C759.137 134.9 755.771 136.667 753.571 140.2C751.437 143.667 750.371 148.4 750.371 154.4C750.371 160.733 751.504 165.567 753.771 168.9C756.104 172.167 759.471 173.8 763.871 173.8C767.071 173.8 769.504 172.967 771.171 171.3C772.904 169.567 774.037 167.1 774.571 163.9H774.971C775.837 164.233 776.704 164.767 777.571 165.5C778.437 166.167 778.871 167.267 778.871 168.8C778.871 171.533 777.404 173.833 774.471 175.7C771.604 177.5 767.804 178.4 763.071 178.4C759.871 178.4 756.904 177.933 754.171 177C751.437 176 749.071 174.533 747.071 172.6C745.071 170.667 743.504 168.2 742.371 165.2C741.237 162.2 740.671 158.7 740.671 154.7C740.671 150.633 741.271 147.067 742.471 144C743.671 140.933 745.304 138.367 747.371 136.3C749.437 134.233 751.871 132.7 754.671 131.7C757.537 130.7 760.604 130.2 763.871 130.2ZM820.657 139.5C820.657 142.033 819.791 143.9 818.057 145.1C816.391 146.233 814.491 146.8 812.357 146.8L812.057 146.3C812.524 146.1 813.024 145.6 813.557 144.8C814.091 144 814.357 142.933 814.357 141.6C814.357 139.333 813.524 137.667 811.857 136.6C810.191 135.467 807.991 134.9 805.257 134.9C804.591 134.9 803.791 134.967 802.857 135.1C801.924 135.233 801.024 135.533 800.157 136C799.291 136.467 798.524 137.133 797.857 138C797.257 138.867 796.957 140 796.957 141.4C796.957 143.267 797.591 144.733 798.857 145.8C800.124 146.867 801.691 147.767 803.557 148.5C805.491 149.233 807.557 149.933 809.757 150.6C811.957 151.267 813.991 152.133 815.857 153.2C817.791 154.267 819.391 155.667 820.657 157.4C821.924 159.133 822.557 161.433 822.557 164.3C822.557 168.967 820.791 172.5 817.257 174.9C813.791 177.233 809.191 178.4 803.457 178.4C803.057 178.4 802.424 178.367 801.557 178.3C800.691 178.3 799.824 178.233 798.957 178.1C798.157 177.967 797.424 177.767 796.757 177.5C796.091 177.233 795.757 176.833 795.757 176.3C792.957 176.3 790.857 175.567 789.457 174.1C788.057 172.633 787.357 170.767 787.357 168.5C787.357 166.033 788.057 164.267 789.457 163.2C790.924 162.133 792.591 161.533 794.457 161.4L794.657 161.7C794.124 162.3 793.791 163.1 793.657 164.1C793.524 165.033 793.457 165.767 793.457 166.3C793.457 167.767 793.791 169 794.457 170C795.124 170.933 795.957 171.7 796.957 172.3C797.957 172.833 799.057 173.233 800.257 173.5C801.524 173.7 802.757 173.8 803.957 173.8C804.224 173.8 804.824 173.767 805.757 173.7C806.757 173.633 807.757 173.4 808.757 173C809.757 172.533 810.657 171.833 811.457 170.9C812.257 169.9 812.657 168.533 812.657 166.8C812.657 164.733 812.057 163.1 810.857 161.9C809.657 160.7 808.124 159.7 806.257 158.9C804.457 158.1 802.491 157.367 800.357 156.7C798.224 155.967 796.224 155.1 794.357 154.1C792.557 153.1 791.057 151.8 789.857 150.2C788.657 148.533 788.057 146.333 788.057 143.6C788.057 140.867 788.657 138.633 789.857 136.9C791.057 135.167 792.557 133.8 794.357 132.8C796.157 131.8 798.057 131.133 800.057 130.8C802.124 130.4 803.991 130.2 805.657 130.2C807.791 130.2 809.424 130.4 810.557 130.8C811.691 131.2 812.257 131.767 812.257 132.5C813.257 132.5 814.257 132.633 815.257 132.9C816.257 133.1 817.157 133.467 817.957 134C818.757 134.533 819.391 135.267 819.857 136.2C820.391 137.067 820.657 138.167 820.657 139.5Z" fill="#50A59B"/>
</svg>
