<svg xmlns="http://www.w3.org/2000/svg" viewBox="0 0 512 183" style="fill-rule:evenodd;">
<path fill="#f9c45a" d="M 110.5,28.5 C 112.158,30.2056 112.825,32.0389 112.5,34C 111.207,34.49 109.873,34.6567 108.5,34.5C 99.8333,33.1667 91.1667,33.1667 82.5,34.5C 81.5386,32.7354 81.2053,30.7354 81.5,28.5C 82.791,28.7373 83.791,28.404 84.5,27.5C 93.3323,25.976 101.999,26.3093 110.5,28.5 Z"/>
<path fill="#f9b560" d="M 84.5,27.5 C 83.791,28.404 82.791,28.7373 81.5,28.5C 81.2053,30.7354 81.5386,32.7354 82.5,34.5C 78.6589,36.0026 74.6589,37.3359 70.5,38.5C 70.9746,35.9179 70.3079,33.9179 68.5,32.5C 73.367,29.6572 78.7004,27.9905 84.5,27.5 Z"/>
<path fill="#fabc61" d="M 110.5,28.5 C 119.56,30.0326 127.56,33.6992 134.5,39.5C 133.504,39.5858 132.671,39.2524 132,38.5C 131.495,40.5183 130.995,42.5183 130.5,44.5C 123.567,40.1933 116.234,36.8599 108.5,34.5C 109.873,34.6567 111.207,34.49 112.5,34C 112.825,32.0389 112.158,30.2056 110.5,28.5 Z"/>
<path fill="#f9a85e" d="M 68.5,32.5 C 70.3079,33.9179 70.9746,35.9179 70.5,38.5C 67.039,41.0692 63.3723,43.4026 59.5,45.5C 58.7326,44.828 58.0659,43.9947 57.5,43C 57.4698,41.5707 57.8031,40.0707 58.5,38.5C 61.1612,35.4977 64.4945,33.4977 68.5,32.5 Z"/>
<path fill="#faa961" d="M 284.5,34.5 C 292.369,33.1178 298.369,35.7845 302.5,42.5C 298.685,46.8372 295.018,47.0039 291.5,43C 289.559,42.2571 287.726,42.4238 286,43.5C 285.316,44.7839 285.483,45.9505 286.5,47C 292.041,48.685 296.874,51.5183 301,55.5C 304.243,66.4473 300.077,72.4473 288.5,73.5C 281.618,72.8984 276.618,69.565 273.5,63.5C 275.5,61.6729 277.667,60.0062 280,58.5C 282.363,64.2111 286.363,65.8778 292,63.5C 292.667,62.5 292.667,61.5 292,60.5C 288.863,58.0144 285.363,56.1811 281.5,55C 272.888,46.581 273.888,39.7476 284.5,34.5 Z"/>
<path fill="#f9b75d" d="M 407.5,69.5 C 409.12,68.1591 410.12,66.3258 410.5,64C 407.875,62.6072 407.875,61.4405 410.5,60.5C 415.429,65.0947 420.595,65.428 426,61.5C 431.462,49.2236 427.629,43.3903 414.5,44C 412.598,45.7297 410.931,47.563 409.5,49.5C 410.657,46.6515 410.324,44.1515 408.5,42C 409.167,40.6667 409.833,39.3333 410.5,38C 409.906,37.5357 409.239,37.369 408.5,37.5C 416.113,33.4406 423.779,33.6072 431.5,38C 438.544,44.9181 440.377,53.0848 437,62.5C 429.162,73.7524 419.328,76.0858 407.5,69.5 Z"/>
<path fill="#faa067" d="M 258.5,35.5 C 261.833,35.5 265.167,35.5 268.5,35.5C 268.5,47.8333 268.5,60.1667 268.5,72.5C 265.223,72.7839 262.057,72.4505 259,71.5C 258.5,59.5046 258.333,47.5046 258.5,35.5 Z"/>
<path fill="#f8a94f" d="M 444.5,35.5 C 447.167,35.5 449.833,35.5 452.5,35.5C 452.5,45.1667 452.5,54.8333 452.5,64.5C 457.5,64.5 462.5,64.5 467.5,64.5C 467.5,66.8333 467.5,69.1667 467.5,71.5C 459.833,71.5 452.167,71.5 444.5,71.5C 444.5,59.5 444.5,47.5 444.5,35.5 Z"/>
<path fill="#faaa62" d="M 492.5,35.5 C 492.5,37.8333 492.5,40.1667 492.5,42.5C 487.968,42.1818 483.634,42.5151 479.5,43.5C 479.5,45.8333 479.5,48.1667 479.5,50.5C 483.833,50.5 488.167,50.5 492.5,50.5C 493.811,52.5598 493.811,54.7265 492.5,57C 488.514,57.4988 484.514,57.6655 480.5,57.5C 480.666,62.1785 480.499,66.8452 480,71.5C 477,72.8333 474,72.8333 471,71.5C 470.5,59.5046 470.333,47.5046 470.5,35.5C 477.833,35.5 485.167,35.5 492.5,35.5 Z"/>
<path fill="#f9c55b" d="M 377.5,52.5 C 383.5,52.5 389.5,52.5 395.5,52.5C 395.5,53.8333 395.5,55.1667 395.5,56.5C 393.535,68.9484 386.201,74.4484 373.5,73C 360.352,69.5618 355.186,61.0618 358,47.5C 360.344,40.4923 365.177,36.3256 372.5,35C 381.557,33.0924 388.89,35.7591 394.5,43C 391.995,44.7533 389.329,46.2533 386.5,47.5C 379.899,40.6977 373.732,41.031 368,48.5C 365.666,60.4974 370.499,65.664 382.5,64C 383.833,62.6667 385.167,61.3333 386.5,60C 383.518,59.502 380.518,59.3354 377.5,59.5C 377.5,57.1667 377.5,54.8333 377.5,52.5 Z"/>
<path fill="#f9bb59" d="M 408.5,37.5 C 409.239,37.369 409.906,37.5357 410.5,38C 409.833,39.3333 409.167,40.6667 408.5,42C 410.324,44.1515 410.657,46.6515 409.5,49.5C 409.323,53.2343 409.656,56.9009 410.5,60.5C 407.875,61.4405 407.875,62.6072 410.5,64C 410.12,66.3258 409.12,68.1591 407.5,69.5C 401.699,65.898 399.032,60.5647 399.5,53.5C 399.182,46.1835 402.182,40.8502 408.5,37.5 Z"/>
<path fill="#fb9a6d" d="M 221.5,71.5 C 220.505,59.6783 220.172,47.6783 220.5,35.5C 227.175,35.3337 233.842,35.5004 240.5,36C 249.396,38.4005 254.062,44.2338 254.5,53.5C 253.518,63.9816 247.851,70.1482 237.5,72C 231.984,72.8174 226.65,72.6507 221.5,71.5 Z M 230.5,43.5 C 238.763,42.445 243.429,45.945 244.5,54C 243.119,61.8651 238.452,65.0318 230.5,63.5C 230.5,56.8333 230.5,50.1667 230.5,43.5 Z"/>
<path fill="#f88057" d="M 230.5,43.5 C 229.509,50.3134 229.175,57.3134 229.5,64.5C 230.978,64.238 232.311,64.5713 233.5,65.5C 233.08,67.326 233.08,69.326 233.5,71.5C 229.5,71.5 225.5,71.5 221.5,71.5C 221.5,59.8333 221.5,48.1667 221.5,36.5C 225.514,36.3345 229.514,36.5012 233.5,37C 232.289,38.1131 232.289,39.2798 233.5,40.5C 232.66,41.735 231.66,42.735 230.5,43.5 Z"/>
<path fill="#f9b65b" d="M 336.5,37.5 C 336.81,40.7131 336.477,43.7131 335.5,46.5C 325.805,40.6911 319.138,43.0244 315.5,53.5C 318.409,63.6673 324.743,66.3339 334.5,61.5C 336.369,63.6353 337.036,66.3019 336.5,69.5C 335.4,70.5585 334.066,71.3918 332.5,72C 310.643,74.1478 302.476,64.6478 308,43.5C 315.869,34.0964 325.369,32.0964 336.5,37.5 Z"/>
<path fill="#fbdfab" d="M 336.5,37.5 C 337.806,40.6868 337.806,44.0202 336.5,47.5C 335.893,47.3764 335.56,47.0431 335.5,46.5C 336.477,43.7131 336.81,40.7131 336.5,37.5 Z"/>
<path fill="#fbca6d" d="M 109.5,41.5 C 108.448,43.256 106.781,43.9227 104.5,43.5C 98.5,43.5 92.5,43.5 86.5,43.5C 84.2043,43.1959 83.871,42.1959 85.5,40.5C 88.6491,39.8349 91.9825,39.5016 95.5,39.5C 100.437,39.3002 105.104,39.9669 109.5,41.5 Z"/>
<path fill="#fbbb71" d="M 85.5,40.5 C 83.871,42.1959 84.2043,43.1959 86.5,43.5C 81.2888,44.7317 76.2888,46.7317 71.5,49.5C 71.7148,47.8212 71.0481,46.8212 69.5,46.5C 74.2436,43.1382 79.5769,41.1382 85.5,40.5 Z"/>
<path fill="#fac393" d="M 492.5,35.5 C 493.473,37.9479 493.806,40.6146 493.5,43.5C 489.167,43.5 484.833,43.5 480.5,43.5C 480.167,43.5 479.833,43.5 479.5,43.5C 483.634,42.5151 487.968,42.1818 492.5,42.5C 492.5,40.1667 492.5,37.8333 492.5,35.5 Z"/>
<path fill="#faaf61" d="M 134.5,39.5 C 143.886,46.3926 150.886,55.2259 155.5,66C 152.773,66.8184 150.106,66.6517 147.5,65.5C 142.947,57.6121 137.28,50.6121 130.5,44.5C 130.995,42.5183 131.495,40.5183 132,38.5C 132.671,39.2524 133.504,39.5858 134.5,39.5 Z"/>
<path fill="#fa9b69" d="M 58.5,38.5 C 57.8031,40.0707 57.4698,41.5707 57.5,43C 58.0659,43.9947 58.7326,44.828 59.5,45.5C 52.8542,51.3121 47.5208,58.1454 43.5,66C 40.8333,66.6667 38.1667,66.6667 35.5,66C 40.5121,54.4984 48.1788,45.3318 58.5,38.5 Z"/>
<path fill="#fde9d7" d="M 479.5,43.5 C 479.833,43.5 480.167,43.5 480.5,43.5C 480.5,45.5 480.5,47.5 480.5,49.5C 484.702,49.1832 488.702,49.5166 492.5,50.5C 488.167,50.5 483.833,50.5 479.5,50.5C 479.5,48.1667 479.5,45.8333 479.5,43.5 Z"/>
<path fill="#fce0ad" d="M 377.5,52.5 C 383.645,51.5098 389.978,51.1765 396.5,51.5C 396.784,53.4147 396.451,55.0813 395.5,56.5C 395.5,55.1667 395.5,53.8333 395.5,52.5C 389.5,52.5 383.5,52.5 377.5,52.5 Z"/>
<path fill="#fba471" d="M 69.5,46.5 C 71.0481,46.8212 71.7148,47.8212 71.5,49.5C 64.3791,53.4535 58.7124,58.9535 54.5,66C 52.8333,66.6667 51.1667,66.6667 49.5,66C 54.7107,57.9553 61.3774,51.4553 69.5,46.5 Z"/>
<path fill="#fbba6f" d="M 109.5,41.5 C 123.497,45.3313 134.163,53.498 141.5,66C 139.833,66.6667 138.167,66.6667 136.5,66C 128.746,54.2951 118.079,46.7951 104.5,43.5C 106.781,43.9227 108.448,43.256 109.5,41.5 Z"/>
<path fill="#fcdda8" d="M 336.5,69.5 C 337.036,66.3019 336.369,63.6353 334.5,61.5C 334.811,60.5222 335.478,59.8555 336.5,59.5C 337.806,62.9798 337.806,66.3132 336.5,69.5 Z"/>
<path fill="#fde8d2" d="M 452.5,35.5 C 453.494,44.6517 453.827,53.985 453.5,63.5C 458.363,63.1805 463.03,63.5139 467.5,64.5C 462.5,64.5 457.5,64.5 452.5,64.5C 452.5,54.8333 452.5,45.1667 452.5,35.5 Z"/>
<path fill="#f8825d" d="M 10.5,70.5 C 15.8333,70.5 21.1667,70.5 26.5,70.5C 21.8333,71.1667 17.1667,71.8333 12.5,72.5C 12.5,84.8333 12.5,97.1667 12.5,109.5C 16.9819,110.326 21.6486,110.826 26.5,111C 21.1771,111.499 15.8437,111.666 10.5,111.5C 10.5,97.8333 10.5,84.1667 10.5,70.5 Z"/>
<path fill="#f8a062" d="M 26.5,70.5 C 36.1724,70.3335 45.8391,70.5002 55.5,71C 56.4158,71.2784 57.0825,71.7784 57.5,72.5C 42.5,72.5 27.5,72.5 12.5,72.5C 17.1667,71.8333 21.8333,71.1667 26.5,70.5 Z"/>
<path fill="#fed393" d="M 10.5,70.5 C 67.1667,69.1667 123.833,69.1667 180.5,70.5C 146.165,70.3333 111.832,70.5 77.5,71C 101.67,71.1679 125.67,71.6679 149.5,72.5C 118.833,72.5 88.1667,72.5 57.5,72.5C 57.0825,71.7784 56.4158,71.2784 55.5,71C 45.8391,70.5002 36.1724,70.3335 26.5,70.5C 21.1667,70.5 15.8333,70.5 10.5,70.5 Z"/>
<path fill="#fce2c3" d="M 444.5,35.5 C 444.5,47.5 444.5,59.5 444.5,71.5C 452.167,71.5 459.833,71.5 467.5,71.5C 459.684,72.4924 451.684,72.8257 443.5,72.5C 443.171,59.9887 443.505,47.6554 444.5,35.5 Z"/>
<path fill="#fddfc9" d="M 39.5,82.5 C 40.9187,81.5489 42.5853,81.2155 44.5,81.5C 44.5,83.8333 44.5,86.1667 44.5,88.5C 43.5386,86.7354 43.2053,84.7354 43.5,82.5C 42.1667,82.5 40.8333,82.5 39.5,82.5 Z"/>
<path fill="#faa45e" d="M 39.5,82.5 C 40.8333,82.5 42.1667,82.5 43.5,82.5C 43.2053,84.7354 43.5386,86.7354 44.5,88.5C 46.8333,88.5 49.1667,88.5 51.5,88.5C 51.5,86.5 51.5,84.5 51.5,82.5C 52.8333,82.5 54.1667,82.5 55.5,82.5C 55.5,88.1667 55.5,93.8333 55.5,99.5C 54.1667,99.5 52.8333,99.5 51.5,99.5C 51.5,97.1667 51.5,94.8333 51.5,92.5C 49.1667,92.5 46.8333,92.5 44.5,92.5C 43.5318,94.6074 43.1984,96.9407 43.5,99.5C 42.1667,99.5 40.8333,99.5 39.5,99.5C 38.1667,93.8333 38.1667,88.1667 39.5,82.5 Z"/>
<path fill="#fcd8b6" d="M 51.5,82.5 C 52.9187,81.5489 54.5853,81.2155 56.5,81.5C 56.5,87.8333 56.5,94.1667 56.5,100.5C 54.5853,100.784 52.9187,100.451 51.5,99.5C 52.8333,99.5 54.1667,99.5 55.5,99.5C 55.5,93.8333 55.5,88.1667 55.5,82.5C 54.1667,82.5 52.8333,82.5 51.5,82.5 Z"/>
<path fill="#faba68" d="M 64.5,81.5 C 74.4735,80.3083 78.9735,84.6416 78,94.5C 74.7228,100.525 69.8895,102.358 63.5,100C 61.3333,99.1667 59.8333,97.6667 59,95.5C 57.0248,89.1772 58.8582,84.5105 64.5,81.5 Z M 65.5,86.5 C 72.0653,85.422 74.232,88.0886 72,94.5C 69.0854,97.07 66.4187,96.7366 64,93.5C 63.3911,90.9348 63.8911,88.6015 65.5,86.5 Z"/>
<path fill="#fbca78" d="M 85.5,86.5 C 84.603,87.5981 83.7697,87.5981 83,86.5C 82.5172,87.448 82.3505,88.448 82.5,89.5C 80.4848,87.3239 78.8181,84.8239 77.5,82C 82.0938,80.3492 84.7605,81.8492 85.5,86.5 Z"/>
<path fill="#fce5b1" d="M 106.5,82.5 C 105.5,82.5 104.5,82.5 103.5,82.5C 101.5,82.5 99.5,82.5 97.5,82.5C 97.5,88.1667 97.5,93.8333 97.5,99.5C 99.5,99.5 101.5,99.5 103.5,99.5C 104.833,99.5 106.167,99.5 107.5,99.5C 104.038,100.482 100.371,100.815 96.5,100.5C 96.5,94.1667 96.5,87.8333 96.5,81.5C 100.042,81.1872 103.375,81.5206 106.5,82.5 Z"/>
<path fill="#f8c248" d="M 103.5,82.5 C 102.833,83.8333 102.167,85.1667 101.5,86.5C 101.5,89.5 101.5,92.5 101.5,95.5C 102.167,96.8333 102.833,98.1667 103.5,99.5C 101.5,99.5 99.5,99.5 97.5,99.5C 97.5,93.8333 97.5,88.1667 97.5,82.5C 99.5,82.5 101.5,82.5 103.5,82.5 Z"/>
<path fill="#fac764" d="M 103.5,82.5 C 104.5,82.5 105.5,82.5 106.5,82.5C 111.143,83.3181 113.476,86.1515 113.5,91C 113.568,95.3829 111.568,98.2163 107.5,99.5C 106.167,99.5 104.833,99.5 103.5,99.5C 102.833,98.1667 102.167,96.8333 101.5,95.5C 105.789,96.5168 108.122,94.8502 108.5,90.5C 107.531,87.0131 105.198,85.6798 101.5,86.5C 102.167,85.1667 102.833,83.8333 103.5,82.5 Z"/>
<path fill="#fbdda4" d="M 120.5,82.5 C 119.167,82.5 117.833,82.5 116.5,82.5C 116.5,88.1667 116.5,93.8333 116.5,99.5C 117.833,99.5 119.167,99.5 120.5,99.5C 119.081,100.451 117.415,100.784 115.5,100.5C 115.5,94.1667 115.5,87.8333 115.5,81.5C 117.415,81.2155 119.081,81.5489 120.5,82.5 Z"/>
<path fill="#f8bb4f" d="M 120.5,82.5 C 120.5,88.1667 120.5,93.8333 120.5,99.5C 119.167,99.5 117.833,99.5 116.5,99.5C 116.5,93.8333 116.5,88.1667 116.5,82.5C 117.833,82.5 119.167,82.5 120.5,82.5 Z"/>
<path fill="#fabf68" d="M 127.5,81.5 C 131.849,80.5769 135.183,81.9102 137.5,85.5C 135.274,87.9222 132.94,87.9222 130.5,85.5C 130.167,85.8333 129.833,86.1667 129.5,86.5C 131.988,88.0693 134.488,89.736 137,91.5C 137.769,94.0991 137.602,96.5991 136.5,99C 131.007,102.401 126.34,101.401 122.5,96C 124.689,93.0526 126.689,93.0526 128.5,96C 129.944,96.7805 131.277,96.6139 132.5,95.5C 129.909,93.6201 127.409,91.6201 125,89.5C 123.837,86.0289 124.67,83.3623 127.5,81.5 Z"/>
<path fill="#fac766" d="M 89.5,92.5 C 88.5318,94.6074 88.1984,96.9407 88.5,99.5C 87.1667,99.5 85.8333,99.5 84.5,99.5C 83.6768,96.3162 83.0101,92.9828 82.5,89.5C 82.3505,88.448 82.5172,87.448 83,86.5C 83.7697,87.5981 84.603,87.5981 85.5,86.5C 86.1174,86.6107 86.6174,86.944 87,87.5C 87.8333,85.8333 88.6667,84.1667 89.5,82.5C 91.5,81.1667 93.5,81.1667 95.5,82.5C 93.4887,85.8611 91.4887,89.1944 89.5,92.5 Z"/>
<path fill="#fddebc" d="M 154.5,82.5 C 155.622,84.2884 155.789,86.2884 155,88.5C 154.005,87.9341 153.172,87.2674 152.5,86.5C 154.176,85.8166 154.843,84.4832 154.5,82.5 Z"/>
<path fill="#fb9c6f" d="M 27.5,80.5 C 31.059,86.6139 34.3924,92.9472 37.5,99.5C 35.9255,100.631 34.2588,100.798 32.5,100C 29.5,96.6667 26.5,96.6667 23.5,100C 21.8659,100.494 20.1992,100.66 18.5,100.5C 20.9479,93.6027 23.9479,86.936 27.5,80.5 Z M 29.5,92.5 C 28.1667,92.5 27.5,91.8333 27.5,90.5C 27.4346,90.0618 27.6012,89.7284 28,89.5C 28.5133,90.5266 29.0133,91.5266 29.5,92.5 Z"/>
<path fill="#fab868" d="M 154.5,82.5 C 154.843,84.4832 154.176,85.8166 152.5,86.5C 145.003,85.8038 143.003,88.6372 146.5,95C 149.669,95.9782 152.503,95.4782 155,93.5C 156.455,98.8096 154.455,101.143 149,100.5C 142.696,100.533 139.196,97.3662 138.5,91C 140.666,82.4327 145.999,79.5993 154.5,82.5 Z"/>
<path fill="#fde2d6" d="M 27.5,90.5 C 27.5,91.8333 28.1667,92.5 29.5,92.5C 28.791,93.404 27.791,93.7373 26.5,93.5C 26.2627,92.209 26.596,91.209 27.5,90.5 Z"/>
<path fill="#fddbc3" d="M 44.5,92.5 C 44.5,95.1667 44.5,97.8333 44.5,100.5C 42.5853,100.784 40.9187,100.451 39.5,99.5C 40.8333,99.5 42.1667,99.5 43.5,99.5C 43.1984,96.9407 43.5318,94.6074 44.5,92.5 Z"/>
<path fill="#fce3b1" d="M 89.5,92.5 C 89.5,95.1667 89.5,97.8333 89.5,100.5C 87.5853,100.784 85.9187,100.451 84.5,99.5C 85.8333,99.5 87.1667,99.5 88.5,99.5C 88.1984,96.9407 88.5318,94.6074 89.5,92.5 Z"/>
<path fill="#fcbe7a" d="M 180.5,70.5 C 181.83,84.2355 181.83,98.0688 180.5,112C 123.665,112.832 66.9985,112.665 10.5,111.5C 15.8437,111.666 21.1771,111.499 26.5,111C 21.6486,110.826 16.9819,110.326 12.5,109.5C 67.8333,109.5 123.167,109.5 178.5,109.5C 178.5,97.1667 178.5,84.8333 178.5,72.5C 168.833,72.5 159.167,72.5 149.5,72.5C 125.67,71.6679 101.67,71.1679 77.5,71C 111.832,70.5 146.165,70.3333 180.5,70.5 Z"/>
<path fill="#fbb26b" d="M 161.5,81.5 C 163.857,81.3367 166.19,81.5034 168.5,82C 172.398,83.8535 172.398,85.6868 168.5,87.5C 167.032,85.6671 165.365,85.3338 163.5,86.5C 165.153,88.1214 167.153,89.2881 169.5,90C 173.585,95.7298 172.085,99.5631 165,101.5C 161.57,101.195 159.07,99.5279 157.5,96.5C 159.241,92.7903 161.241,92.6236 163.5,96C 164.635,96.7494 165.635,96.5827 166.5,95.5C 163.948,93.631 161.448,91.631 159,89.5C 157.837,86.0289 158.67,83.3623 161.5,81.5 Z"/>
<path fill="#fbb76b" d="M 294.5,110.5 C 302.484,107.646 308.817,109.813 313.5,117C 311.507,118.999 309.173,120.499 306.5,121.5C 304.657,118.578 301.99,117.245 298.5,117.5C 300.158,116.819 301.825,115.985 303.5,115C 302.167,113.667 302.167,112.333 303.5,111C 300.518,110.502 297.518,110.335 294.5,110.5 Z"/>
<path fill="#fbbf67" d="M 343.5,110.5 C 343.5,115.167 343.5,119.833 343.5,124.5C 340.167,124.5 338.5,126.167 338.5,129.5C 339.93,129.421 341.264,129.754 342.5,130.5C 343.495,135.792 343.828,141.125 343.5,146.5C 342.513,141.695 342.179,136.695 342.5,131.5C 337.833,131.5 333.167,131.5 328.5,131.5C 328.5,136.5 328.5,141.5 328.5,146.5C 325.167,146.5 321.833,146.5 318.5,146.5C 318.333,134.495 318.5,122.495 319,110.5C 322,109.167 325,109.167 328,110.5C 328.499,114.821 328.666,119.154 328.5,123.5C 333.167,123.5 337.833,123.5 342.5,123.5C 342.182,118.968 342.515,114.634 343.5,110.5 Z"/>
<path fill="#f8c354" d="M 343.5,146.5 C 343.828,141.125 343.495,135.792 342.5,130.5C 341.264,129.754 339.93,129.421 338.5,129.5C 338.5,126.167 340.167,124.5 343.5,124.5C 343.5,119.833 343.5,115.167 343.5,110.5C 346.23,109.183 349.063,109.183 352,110.5C 352.5,122.495 352.667,134.495 352.5,146.5C 349.5,146.5 346.5,146.5 343.5,146.5 Z"/>
<path fill="#f9bb58" d="M 402.5,110.5 C 405.187,110.336 407.854,110.503 410.5,111C 409.395,113.12 409.395,115.287 410.5,117.5C 410.5,119.167 410.5,120.833 410.5,122.5C 409.809,126.899 409.142,131.399 408.5,136C 409.066,136.995 409.733,137.828 410.5,138.5C 410.5,141.167 410.5,143.833 410.5,146.5C 407.5,146.5 404.5,146.5 401.5,146.5C 401.172,134.322 401.505,122.322 402.5,110.5 Z"/>
<path fill="#fab95d" d="M 402.5,110.5 C 406.646,109.353 410.98,109.186 415.5,110C 426.423,111.013 430.589,116.846 428,127.5C 426.395,131.276 423.562,133.276 419.5,133.5C 416.5,133.5 413.5,133.5 410.5,133.5C 410.5,135.167 410.5,136.833 410.5,138.5C 409.733,137.828 409.066,136.995 408.5,136C 409.142,131.399 409.809,126.899 410.5,122.5C 410.232,124.099 410.566,125.432 411.5,126.5C 417.496,127.667 419.996,125.334 419,119.5C 418.617,118.944 418.117,118.611 417.5,118.5C 415.393,117.532 413.059,117.198 410.5,117.5C 409.395,115.287 409.395,113.12 410.5,111C 407.854,110.503 405.187,110.336 402.5,110.5 Z"/>
<path fill="#fab065" d="M 140.5,137.5 C 140.664,134.813 140.497,132.146 140,129.5C 139.617,130.056 139.117,130.389 138.5,130.5C 141.645,125.834 144.645,121.001 147.5,116C 150.227,115.182 152.894,115.348 155.5,116.5C 152.195,124.8 147.195,131.8 140.5,137.5 Z"/>
<path fill="#f99462" d="M 49.5,126.5 C 48.8288,127.847 48.8288,129.014 49.5,130C 49.0257,131.729 48.0257,132.895 46.5,133.5C 41.9689,128.285 38.3023,122.452 35.5,116C 38.1667,115.333 40.8333,115.333 43.5,116C 45.3972,119.636 47.3972,123.136 49.5,126.5 Z"/>
<path fill="#fb9f6f" d="M 63.5,127.5 C 62.596,128.209 62.2627,129.209 62.5,130.5C 57.4881,126.813 53.4881,122.146 50.5,116.5C 51.723,115.386 53.0563,115.219 54.5,116C 57.1466,120.136 60.1466,123.969 63.5,127.5 Z"/>
<path fill="#fdeed5" d="M 410.5,117.5 C 413.059,117.198 415.393,117.532 417.5,118.5C 415.5,118.5 413.5,118.5 411.5,118.5C 411.5,121.167 411.5,123.833 411.5,126.5C 410.566,125.432 410.232,124.099 410.5,122.5C 410.5,120.833 410.5,119.167 410.5,117.5 Z"/>
<path fill="#fbba73" d="M 123.5,134.5 C 123.737,133.209 123.404,132.209 122.5,131.5C 128.012,127.152 132.679,121.985 136.5,116C 138.167,115.333 139.833,115.333 141.5,116C 137.338,123.995 131.338,130.162 123.5,134.5 Z"/>
<path fill="#f9c357" d="M 371.5,109.5 C 392.893,109.061 400.393,119.061 394,139.5C 383.306,151.095 372.306,151.428 361,140.5C 353.692,126.253 357.192,115.92 371.5,109.5 Z M 372.5,118.5 C 375.518,118.335 378.518,118.502 381.5,119C 385.235,120.8 386.902,123.8 386.5,128C 386.165,137.18 381.498,140.513 372.5,138C 367.78,134.702 366.28,130.202 368,124.5C 368.804,121.854 370.304,119.854 372.5,118.5 Z"/>
<path fill="#faa265" d="M 49.5,126.5 C 53.1667,129.5 56.5,132.833 59.5,136.5C 60.6567,139.307 60.6567,141.974 59.5,144.5C 54.2814,141.954 49.9481,138.287 46.5,133.5C 48.0257,132.895 49.0257,131.729 49.5,130C 48.8288,129.014 48.8288,127.847 49.5,126.5 Z"/>
<path fill="#fde9ca" d="M 419.5,133.5 C 417.052,134.473 414.385,134.806 411.5,134.5C 411.817,138.702 411.483,142.702 410.5,146.5C 410.5,143.833 410.5,141.167 410.5,138.5C 410.5,136.833 410.5,135.167 410.5,133.5C 413.5,133.5 416.5,133.5 419.5,133.5 Z"/>
<path fill="#fbb671" d="M 63.5,127.5 C 69.2174,131.358 75.2174,134.692 81.5,137.5C 80.7611,137.369 80.0944,137.536 79.5,138C 80.2524,138.671 80.5858,139.504 80.5,140.5C 73.5674,138.704 67.5674,135.37 62.5,130.5C 62.2627,129.209 62.596,128.209 63.5,127.5 Z"/>
<path fill="#fbc26c" d="M 122.5,131.5 C 123.404,132.209 123.737,133.209 123.5,134.5C 118.694,137.9 113.36,140.233 107.5,141.5C 107.414,140.504 107.748,139.671 108.5,139C 107.552,138.517 106.552,138.351 105.5,138.5C 111.233,136.471 116.9,134.138 122.5,131.5 Z"/>
<path fill="#f9ad5e" d="M 294.5,110.5 C 297.518,110.335 300.518,110.502 303.5,111C 302.167,112.333 302.167,113.667 303.5,115C 301.825,115.985 300.158,116.819 298.5,117.5C 296.524,118.427 296.191,119.76 297.5,121.5C 302.079,123.706 306.579,126.039 311,128.5C 316.281,139.932 312.614,146.599 300,148.5C 294.382,148.024 289.715,145.691 286,141.5C 285.018,140.241 284.685,138.908 285,137.5C 286.973,136.36 288.807,135.027 290.5,133.5C 293.325,138.666 297.492,140.333 303,138.5C 303.667,137.167 303.667,135.833 303,134.5C 299.27,132.477 295.437,130.644 291.5,129C 287.024,124.915 285.857,120.082 288,114.5C 289.638,112.266 291.805,110.933 294.5,110.5 Z"/>
<path fill="#f9b75e" d="M 140.5,137.5 C 134.917,143.4 128.251,147.733 120.5,150.5C 120.611,148.476 119.945,146.476 118.5,144.5C 125.829,140.831 132.495,136.164 138.5,130.5C 139.117,130.389 139.617,130.056 140,129.5C 140.497,132.146 140.664,134.813 140.5,137.5 Z"/>
<path fill="#fbca6d" d="M 81.5,137.5 C 89.4659,138.365 97.4659,138.698 105.5,138.5C 106.552,138.351 107.552,138.517 108.5,139C 107.748,139.671 107.414,140.504 107.5,141.5C 98.2983,144.122 89.2983,143.788 80.5,140.5C 80.5858,139.504 80.2524,138.671 79.5,138C 80.0944,137.536 80.7611,137.369 81.5,137.5 Z"/>
<path fill="#f9ac61" d="M 59.5,136.5 C 63.8557,139.201 68.1891,141.868 72.5,144.5C 70.6921,145.918 70.0254,147.918 70.5,150.5C 66.3447,149.258 62.678,147.258 59.5,144.5C 60.6567,141.974 60.6567,139.307 59.5,136.5 Z"/>
<path fill="#fab963" d="M 72.5,144.5 C 77.324,145.668 81.9907,147.002 86.5,148.5C 84.8333,148.5 83.1667,148.5 81.5,148.5C 81.2587,150.886 81.9254,152.886 83.5,154.5C 78.8354,153.943 74.5021,152.61 70.5,150.5C 70.0254,147.918 70.6921,145.918 72.5,144.5 Z"/>
<path fill="#fac461" d="M 118.5,144.5 C 119.945,146.476 120.611,148.476 120.5,150.5C 113.997,153.804 106.997,155.471 99.5,155.5C 101.424,153.91 101.757,152.076 100.5,150C 96.3123,149.824 92.3123,149.324 88.5,148.5C 98.8015,149.233 108.802,147.9 118.5,144.5 Z"/>
<path fill="#f8c04e" d="M 86.5,148.5 C 87.1667,148.5 87.8333,148.5 88.5,148.5C 92.3123,149.324 96.3123,149.824 100.5,150C 101.757,152.076 101.424,153.91 99.5,155.5C 94.0735,155.782 88.7401,155.449 83.5,154.5C 81.9254,152.886 81.2587,150.886 81.5,148.5C 83.1667,148.5 84.8333,148.5 86.5,148.5 Z"/>
</svg>
