
<svg viewBox="0 0 31 31" xmlns="http://www.w3.org/2000/svg" >
  <path d="M 10.462891 16.070312 C 4.9244824 18.277775 0.99608795 23.682844 0.99609375 30 A 1.0001 1.0001 0 0 0 2 31.003906 L 30 31.003906 A 1.0001 1.0001 0 0 0 30.996094 30 C 30.996099 23.68349 27.06876 18.278206 21.53125 16.070312 C 19.99994 17.27111 18.07881 17.996094 15.996094 17.996094 C 13.912967 17.996094 11.992832 17.271538 10.462891 16.070312 z " fill="currentColor"/>
  <path d="M 15.996094 1.0039062 C 11.589664 1.0039062 8.0019573 4.5916469 8.0019531 8.9980469 C 8.0019573 13.404485 11.589664 17 15.996094 17 C 20.402524 17 23.998043 13.404485 23.998047 8.9980469 C 23.998043 4.5916469 20.402524 1.0039062 15.996094 1.0039062 z " fill="currentColor" />
</svg>
