<svg xmlns="http://www.w3.org/2000/svg" xmlns:xlink="http://www.w3.org/1999/xlink" viewBox="0 0 512.002 512.002">
	<path d="M175.253,95.447c-0.017,0-0.034,0-0.05,0c-0.003,0-0.005,0-0.008,0H175.253z"/>
	<path d="M422.723,472.106l-78.312-31.419c-12.291-4.931-20.233-16.675-20.233-29.919v-23.859
		c11.749-9.656,22.708-21.853,32.558-36.427c24.702-36.551,38.871-83.172,38.871-127.91c0-19.282-2.618-38.04-7.779-55.953
		c24.477-15.49,40.072-42.878,40.087-72.486c0.014-26.019-1.596-51.81-2.949-68.865c-0.739-9.315-6.087-17.528-14.309-21.972
		C406.667,1.14,402.159,0,397.62,0c-4.586,0-9.139,1.162-13.167,3.363c-29.102,15.898-67.526,16.436-108.206,17.005
		c-16.81,0.235-34.193,0.479-51.189,1.872c-37.172,3.046-53.698,22.878-61.039,40.018c-17.278,0.676-31.003,4.18-41.816,10.657
		c-12.486,7.479-27.371,22.861-27.371,53.681c0,22.315,18.282,94.523,21.95,108.786c2.409,40.708,16.134,82.027,38.487,115.102
		c9.85,14.574,20.809,26.771,32.558,36.427v23.86c0,13.244-7.942,24.987-20.234,29.919l-78.311,31.419
		c-9.189,3.686-14.491,13.415-12.609,23.134c1.879,9.711,10.424,16.759,20.316,16.759h318.027c9.892,0,18.436-7.049,20.314-16.763
		C437.21,485.518,431.906,475.789,422.723,472.106z M134.035,163.606c-3.478-16.586-5.957-30.726-5.957-37.012
		c-0.001-28.302,18.765-31.283,47.125-31.146c8.715,0.302,15.392-5.461,17.079-12.951c3.792-16.831,15.069-25.45,35.493-27.125
		c15.872-1.301,32.682-1.536,48.938-1.763c39.87-0.558,81-1.134,115.76-17.099c1.121,15.883,2.211,36.718,2.198,57.607
		c-0.011,20.673-12.421,39.583-31.16,47.927H182.679C163.762,142.044,146.185,150.152,134.035,163.606z M182.814,331.867
		c-19.253-28.485-31.306-65.669-32.966-100.979c-0.403-8.644-0.238-17.35,0.779-26.853c1.754-16.386,15.53-28.746,32.051-28.746
		h173.06c4.399,15.083,6.624,30.938,6.624,47.284c0,37.704-12.4,78.562-33.171,109.294
		c-17.014,25.174-43.115,47.997-73.189,47.997C225.918,379.864,199.82,357.029,182.814,331.867z M161.988,478.757v-0.001
		l17.984-7.215c24.967-10.016,41.099-33.871,41.099-60.772v-4.201c11.132,4.243,23.018,6.54,34.931,6.54
		c11.734,0,23.625-2.231,34.93-6.539v4.201c0,26.901,16.132,50.755,41.099,60.772l17.984,7.215H161.988z"/>
	<path d="M299.049,321.676c-4.327-4.328-11.344-4.328-15.671,0c-15.094,15.095-39.654,15.096-54.749,0
		c-4.327-4.327-11.344-4.327-15.672,0c-4.327,4.327-4.327,11.344,0,15.672c11.868,11.867,27.457,17.801,43.046,17.801
		s31.178-5.934,43.046-17.801C303.376,333.021,303.376,326.005,299.049,321.676z"/>
	<path d="M335.409,218.505h-55.8c-5.817,0-10.761,3.681-12.668,8.835h-21.88c-1.907-5.154-6.852-8.835-12.668-8.835h-55.8
		c-7.467,0-13.52,6.053-13.52,13.52v19.291c0,14.503,11.757,26.259,26.259,26.259h30.32c14.503,0,26.26-11.757,26.26-26.259v-1.814
		h20.177v1.814c0,14.503,11.757,26.259,26.259,26.259h30.32c14.503,0,26.259-11.757,26.259-26.259v-19.291
		C348.929,224.559,342.876,218.505,335.409,218.505z"/>
</svg>
