<svg viewBox="0 0 24 24" xmlns="http://www.w3.org/2000/svg">
  <path d="M12.5 6C12.5 5.72386 12.2761 5.5 12 5.5C11.7239 5.5 11.5 5.72386 11.5 6V12C11.5 12.1894 11.607 12.3625 11.7764 12.4472L15.7764 14.4472C16.0234 14.5707 16.3237 14.4706 16.4472 14.2236C16.5707 13.9766 16.4706 13.6763 16.2236 13.5528L12.5 11.691V6Z" fill="currentColor" />
  <path fill-rule="evenodd" clip-rule="evenodd" d="M12 22C17.5228 22 22 17.5228 22 12C22 6.47715 17.5228 2 12 2C6.47715 2 2 6.47715 2 12C2 17.5228 6.47715 22 12 22ZM21 12C21 16.9706 16.9706 21 12 21C7.02944 21 3 16.9706 3 12C3 7.02944 7.02944 3 12 3C16.9706 3 21 7.02944 21 12Z" fill="currentColor" />
</svg>
