<svg viewBox="0 0 24 24" xmlns="http://www.w3.org/2000/svg">
  <path fill-rule="evenodd" clip-rule="evenodd" d="M1 22V6L8 2L16 6L23 2V18L16 22L8 18L1 22ZM7.50386 17.1318L7.51577 17.1251C7.50547 17.0851 7.5 17.0432 7.5 17V3.43747L2 6.58032V20.2768L7.50386 17.1318ZM15.5 20.632L8.48445 17.1242C8.4946 17.0845 8.5 17.0429 8.5 17V3.36803L15.5155 6.87581C15.5054 6.91552 15.5 6.95713 15.5 7V20.632ZM16.5 20.5625L22 17.4197V3.72318L16.4961 6.86824C16.4922 6.8705 16.4882 6.87274 16.4842 6.87494C16.4945 6.91491 16.5 6.95681 16.5 7V20.5625Z" />
</svg>
