<svg xmlns="http://www.w3.org/2000/svg" viewBox="24 137 216 72" fill="currentColor">
  <path d="M123.414,155.435c0.027,-0.252 -0.161,-0.465 -0.414,-0.465l-9.718,0c-0.253,0 -0.486,0.213 -0.512,0.465l-1.022,9.716c-0.026,0.253 0.162,0.466 0.415,0.466l9.718,0c0.253,0 0.485,-0.213 0.512,-0.466l1.021,-9.716Zm-0.174,-2.746c1.519,0 2.615,1.224 2.455,2.746l-1.021,9.716c-0.16,1.522 -1.513,2.746 -3.033,2.746l-12.464,0l1.598,-15.208l12.465,0Z"  />
  <path d="M128.364,152.689l2.281,0l-1.599,15.208l-2.28,0l1.598,-15.208Z"  />
  <path d="M147.709,156.322l-2.28,0l0.093,-0.887c0.027,-0.253 -0.161,-0.465 -0.417,-0.465l-9.715,0c-0.253,0 -0.486,0.212 -0.513,0.465l-0.341,3.252c-0.027,0.256 0.161,0.466 0.414,0.466l9.716,0c1.522,0 2.617,1.224 2.457,2.746l-0.342,3.252c-0.16,1.522 -1.512,2.746 -3.035,2.746l-9.715,0c-1.52,0 -2.618,-1.224 -2.458,-2.746l0.093,-0.886l2.283,0l-0.093,0.886c-0.026,0.253 0.162,0.466 0.414,0.466l9.716,0c0.255,0 0.488,-0.213 0.515,-0.466l0.342,-3.252c0.026,-0.253 -0.162,-0.465 -0.417,-0.465l-9.716,0c-1.52,0 -2.617,-1.225 -2.458,-2.747l0.342,-3.252c0.16,-1.522 1.516,-2.746 3.035,-2.746l9.716,0c1.522,0 2.617,1.224 2.458,2.746l-0.094,0.887Z"  />
  <path d="M152.851,154.97c-0.253,0 -0.486,0.213 -0.512,0.465l-1.021,9.716c-0.027,0.253 0.161,0.466 0.414,0.466l12.422,0l-0.24,2.28l-12.422,0c-1.52,0 -2.615,-1.224 -2.455,-2.746l1.021,-9.716c0.16,-1.522 1.513,-2.746 3.033,-2.746l12.421,0l-0.239,2.281l-12.422,0Z"  />
  <path d="M188.651,156.344l-2.284,0l0.096,-0.909c0.026,-0.252 -0.161,-0.465 -0.414,-0.465l-9.719,0c-0.252,0 -0.485,0.213 -0.512,0.465l-1.021,9.716c-0.026,0.253 0.162,0.466 0.414,0.466l9.719,0c0.252,0 0.485,-0.213 0.512,-0.466l0.346,-3.294l-3.59,0l0.24,-2.281l5.873,0l-0.586,5.575c-0.16,1.522 -1.516,2.746 -3.035,2.746l-9.718,0c-1.52,0 -2.618,-1.224 -2.458,-2.746l1.021,-9.716c0.16,-1.522 1.516,-2.746 3.035,-2.746l9.718,0c1.52,0 2.618,1.224 2.458,2.746l-0.095,0.909Z"  />
  <path d="M202.411,165.617c0.253,0 0.485,-0.213 0.512,-0.466l1.021,-9.716c0.027,-0.252 -0.161,-0.465 -0.414,-0.465l-9.718,0c-0.253,0 -0.486,0.213 -0.512,0.465l-1.022,9.716c-0.026,0.253 0.162,0.466 0.415,0.466l9.718,0Zm1.359,-12.928c1.519,0 2.617,1.224 2.457,2.746l-1.021,9.716c-0.16,1.522 -1.515,2.746 -3.035,2.746l-9.718,0c-1.519,0 -2.615,-1.224 -2.455,-2.746l1.021,-9.716c0.16,-1.522 1.513,-2.746 3.032,-2.746l9.719,0Z"  />
  <path d="M208.856,152.669l2.281,0l-1.361,12.948l12.928,0l-0.24,2.28l-15.208,0l1.6,-15.228Z"  />
  <path d="M239.263,152.689l-0.239,2.281l-11.659,0l-0.44,4.183l9.378,0l-0.239,2.281l-9.378,0l-0.68,6.463l-2.283,0l1.599,-15.208l13.941,0Z"  />
  <path d="M128.824,171.493l5.032,0l-2.366,22.503l-4.876,0l1.586,-15.096c-2.846,3.002 -5.913,6.314 -8.723,9.25l-6.814,-9.217l-1.583,15.063l-4.844,0l2.365,-22.503l5.002,0l6.669,9.095l8.552,-9.095Z"  />
  <path d="M157.166,176.369l-15.877,0l-0.414,3.938l12.785,0l-0.512,4.874l-12.785,0l-0.414,3.938l15.877,0l-0.513,4.877l-20.783,0l2.365,-22.503l20.783,0l-0.512,4.876Z"  />
  <path d="M181.376,171.493l-0.513,4.876l-8.812,0l-1.853,17.627l-4.876,0l1.852,-17.627l-8.814,0l0.512,-4.876l22.504,0Z"  />
  <path d="M186.682,181.714l12.753,0l0.562,-5.344l-12.753,0l-0.562,5.344Zm17.633,0.251c-0.266,2.531 -2.579,4.623 -5.142,4.623l-0.218,0c1.395,1.875 2.905,3.876 4.27,5.751l-0.174,1.657l-5,0l-5.442,-7.408l-6.442,0.033c0.062,0 0.088,0.062 0.075,0.188c-0,0 -0.062,0 -0.092,-0.033l-0.758,7.22l-4.844,0l2.361,-22.471l17.847,0c2.564,0 4.437,2.093 4.17,4.624l-0.611,5.816Z"  />
  <path d="M207.987,171.493l4.874,0l-2.365,22.503l-4.874,0l2.365,-22.503Z"  />
  <path d="M237.492,171.493l-0.174,1.657l-9.072,9.596l7.058,9.563l-0.177,1.687l-5.032,0l-5.476,-7.375c-1.94,2.093 -4.809,5.032 -6.963,7.375l-5.032,0l0.174,-1.657l9.042,-9.593c-2.295,-3.157 -4.697,-6.472 -7.025,-9.596l0.174,-1.657l5.032,0l5.472,7.407c1.911,-2.125 4.78,-5.032 6.967,-7.407l5.032,0Z"  />
  <path d="M77.926,196.685l-3.535,-4.866c-0.509,0.397 -1.033,0.776 -1.572,1.133l3.539,4.871c-4.711,3.177 -10.337,5.091 -16.389,5.277l0,-6.019c-0.322,0.012 -0.644,0.024 -0.969,0.024c-0.325,0 -0.647,-0.012 -0.969,-0.024l0,6.019c-6.053,-0.186 -11.678,-2.1 -16.389,-5.277l3.539,-4.871c-0.54,-0.357 -1.063,-0.736 -1.573,-1.133l-3.535,4.866c-4.613,-3.546 -8.211,-8.349 -10.268,-13.897l5.745,-1.867c-0.228,-0.602 -0.432,-1.214 -0.615,-1.837l-5.742,1.866c-0.854,-2.837 -1.318,-5.84 -1.318,-8.95c0,-2.922 0.413,-5.748 1.17,-8.431l5.757,1.871c0.17,-0.627 0.362,-1.244 0.578,-1.85l-5.753,-1.869c1.985,-5.656 5.558,-10.566 10.184,-14.2l3.56,4.9c0.505,-0.403 1.022,-0.791 1.557,-1.154l-3.559,-4.898c4.767,-3.289 10.491,-5.279 16.662,-5.469l-0,6.072c0.322,-0.012 0.644,-0.024 0.969,-0.024c0.325,0 0.647,0.012 0.969,0.024l-0,-6.072c6.171,0.19 11.895,2.18 16.661,5.469l-3.558,4.898c0.535,0.363 1.052,0.751 1.557,1.153l3.559,-4.899c4.626,3.634 8.2,8.544 10.185,14.2l-5.753,1.869c0.216,0.606 0.408,1.223 0.578,1.85l5.757,-1.871c0.757,2.683 1.17,5.509 1.17,8.431c-0,3.11 -0.464,6.113 -1.318,8.95l-5.742,-1.866c-0.183,0.623 -0.387,1.235 -0.615,1.837l5.745,1.867c-2.057,5.548 -5.655,10.351 -10.269,13.897m-18.926,-59.685c-19.299,0 -35,15.701 -35,35c-0,19.299 15.701,35 35,35c19.299,0 35,-15.701 35,-35c-0,-19.299 -15.701,-35 -35,-35"  />
  <path d="M59.981,179.487l0,14.488l-1.95,0l0,-14.488l-9.116,0l-1.215,-7.217l7.53,-0.042c-3.399,-2.729 -5.779,-9.037 -5.779,-16.384c0,-1.198 0.063,-2.37 0.183,-3.503l18.731,0c0.121,1.133 0.184,2.305 0.184,3.503c0,7.311 -2.357,13.593 -5.729,16.344l7.48,-0.041l-1.513,7.34l-8.806,0Z"  />
</svg>
