<svg xmlns="http://www.w3.org/2000/svg" viewBox="100 80 210 230">
	<style type="text/css">
		.st0{fill:#00103B;}
		.st1{fill:#DE1043;}
		.st2{fill:#003DD4;}
		.st3{fill:#FFFFFF;}
	</style>
	<circle class="st1" cx="204.7" cy="209.6" r="86.1"/>
	<path class="st0" d="M204.7,129.1c44.4,0,80.4,36,80.4,80.4s-36,80.4-80.4,80.4s-80.4-36-80.4-80.4S160.3,129.1,204.7,129.1 M204.7,117.8c-50.6,0-91.8,41.2-91.8,91.8s41.2,91.8,91.8,91.8s91.8-41.2,91.8-91.8S255.3,117.8,204.7,117.8L204.7,117.8z"/>
	<path class="st2" d="M199.8,260.6c-11.5,0-22.6-5.5-29.5-14.8c-11.2-15.1-21.8-42.2-28.3-72.7c-2.4-11.4-9.7-49.6-0.6-61.3 c13.1-17,51.8-18.3,63.3-18.3s50.2,1.3,63.3,18.3c9.1,11.8,1.8,49.9-0.6,61.3c-6.5,30.5-17.1,57.6-28.3,72.7 c-6.9,9.3-17.9,14.8-29.5,14.8H199.8z"/>
	<path class="st0" d="M204.7,99.2c11.8,0,47.7,1.6,58.8,16.1c10.4,13.5-5.2,95.3-29,127.1c-5.9,7.9-15.2,12.5-24.9,12.5h-4.9 h-4.9c-9.7,0-19-4.6-24.9-12.5c-23.8-31.9-39.4-113.6-29-127.1C157,100.9,192.9,99.2,204.7,99.2 M204.7,87.9 c-5,0-18.1,0.3-31.7,2.8c-17.6,3.3-29.4,9.1-36.1,17.7c-4.3,5.6-6.1,14.6-5.6,28.4c0.4,10.7,2.2,23.7,5.1,37.5 c6.7,31.2,17.6,59.2,29.3,74.9c8,10.7,20.7,17.1,34,17.1h4.9h4.9c13.3,0,26-6.4,34-17.1c11.7-15.7,22.7-43.7,29.3-74.9 c3-13.8,4.7-26.8,5.1-37.5c0.5-13.8-1.3-22.8-5.6-28.4c-6.6-8.6-18.4-14.4-36.1-17.7C222.8,88.2,209.7,87.9,204.7,87.9 L204.7,87.9z"/>
	<path class="st3" d="M229.6,210.5c-2.3,0-4.3-1.9-4.3-4.3v-29.6l-11.6,8.4l-9.1-32.5l-9.1,32.5l-11.6-8.4v29.6 c0,2.3-1.9,4.3-4.3,4.3s-4.3-1.9-4.3-4.3V160l15.2,11l14-49.9l14,49.9l15.2-11v46.3C233.9,208.6,232,210.5,229.6,210.5z"/>
	<polygon class="st3" points="204.7,103.7 209.3,113.8 220.5,115.2 212.1,122.6 214.4,133.8 204.7,128.1 194.9,133.8 197.2,122.6 188.8,115.2 200,113.8 		"/>
	<path class="st3" d="M204.7,274.4c-37.4,0-61.7-3.6-72.9-5.8c-5.8-1.1-10.5-5.4-12.2-11.1l-10.2-34.6c-1.3-4.5-0.6-9.3,2-13.2 c2.6-3.9,6.7-6.5,11.4-7c18.7-2.1,52.3-3.6,81.9-3.6s63.2,1.5,81.9,3.6c4.7,0.5,8.8,3.1,11.4,7c2.6,3.9,3.3,8.7,2,13.2 l-10.2,34.6c-1.7,5.7-6.4,10-12.2,11.1C266.4,270.7,242,274.4,204.7,274.4z"/>
	<path class="st0" d="M204.7,204.7c28.4,0,62.1,1.4,81.2,3.6c6.3,0.7,10.4,6.9,8.6,13l-10.2,34.6c-1.1,3.7-4.1,6.4-7.8,7.1 c-10.5,2-34.6,5.7-71.8,5.7s-61.3-3.7-71.8-5.7c-3.7-0.7-6.8-3.5-7.8-7.1c-2.5-8.4-7.1-24-10.2-34.6c-1.8-6.1,2.3-12.3,8.6-13 C142.6,206.1,176.3,204.7,204.7,204.7 M204.7,193.3c-29.8,0-63.7,1.5-82.5,3.7c-6.3,0.7-12,4.2-15.5,9.5 c-3.5,5.3-4.5,11.9-2.7,18l7.3,24.7l2.9,9.9c2.3,7.7,8.6,13.5,16.5,15c11.4,2.2,36.1,5.9,74,5.9s62.6-3.7,74-5.9 c7.9-1.5,14.3-7.3,16.5-15l10.2-34.6c1.8-6.1,0.8-12.7-2.7-18c-3.5-5.3-9.2-8.8-15.5-9.5C268.4,194.9,234.4,193.3,204.7,193.3 L204.7,193.3z"/>
	<path class="st0" d="M143.9,221.1c7.2-0.2,10.8-0.3,18-0.5c3-0.1,5.2,0.6,6.5,2c1.4,1.4,2,3.6,2,6.7c0,1.8,0,2.7,0,4.4 c0,3.1-0.7,5.4-2,6.8c-1.4,1.4-3.5,2.1-6.5,2.1c-4.1,0-6.2,0-10.3-0.1c0,3.5,0,5.2,0,8.7c-3.1-0.1-4.6-0.1-7.7-0.2 C143.9,241.1,143.9,231.1,143.9,221.1z M162.7,229.4c0-1.8-0.9-2.6-2.6-2.6c-3.4,0.1-5.1,0.1-8.6,0.1c0,3.8,0,5.7,0,9.5 c3.4,0,5.1,0,8.6,0c1.7,0,2.6-0.9,2.6-2.7C162.7,232,162.7,231.2,162.7,229.4z"/>
	<path class="st0" d="M180.1,220.3c9-0.1,13.5-0.1,22.5-0.2c0,10.1,0,15.2,0,25.3c1.3,0,1.9,0,3.2,0c0,4.9,0,7.3,0,12.2 c-2.9,0-4.4,0-7.3,0c-0.2-2.3-0.3-3.5-0.4-5.9c-6.7,0-10,0-16.7-0.1c-0.2,2.3-0.3,3.5-0.4,5.8c-2.9,0-4.4-0.1-7.3-0.1 c0-4.8,0-7.2,0-12c1.1,0,1.7,0,2.8,0c0.5-0.5,0.9-1.2,1.2-1.8c0.3-0.6,0.6-1.3,0.9-2.1c0.3-0.8,0.4-1.7,0.5-2.8 C179.5,231.3,179.7,227.6,180.1,220.3z M194.9,245.4c0-7.6,0-11.4,0-18.9c-3.2,0-4.8,0-7.9,0c-0.3,4.5-0.4,6.7-0.6,11.2 c-0.1,1.1-0.2,2.2-0.5,3.1c-0.3,0.9-0.5,1.7-0.8,2.4c-0.3,0.8-0.7,1.5-1.1,2.1C188.3,245.4,190.5,245.4,194.9,245.4z"/>
	<path class="st0" d="M220.2,251.7c-3.1,0-4.6,0-7.7,0c0-10.5,0-21,0-31.6c9.3,0,14,0.1,23.4,0.2c0,2.5,0,3.7,0,6.2 c-6.3-0.1-9.4-0.1-15.6-0.1C220.2,236.6,220.2,241.6,220.2,251.7z"/>
	<path class="st0" d="M242.2,251.5c-3.3,0-5,0.1-8.4,0.1c3.8-10.3,7.5-20.7,11.4-31c3.4,0.1,5.1,0.1,8.6,0.2 c3.7,10.1,7.5,20.2,11.4,30.3c-3.3,0.1-5,0.1-8.4,0.2c-0.8-2.2-1.2-3.2-1.9-5.4c-4.3,0-6.4,0.1-10.7,0.1 C243.4,248.2,243,249.3,242.2,251.5z M246.1,240.2c2.7,0,4.1,0,6.9,0c-1.4-4.1-2.1-6.2-3.4-10.3 C248.1,234,247.5,236.1,246.1,240.2z"/>
</svg>
