<svg xmlns="http://www.w3.org/2000/svg" viewBox="100 80 210 230">
	<style type="text/css">
		.st0{fill:#00103B;}
		.st1{fill:#DE1043;}
		.st2{fill:#003DD4;}
		.st3{fill:#FFFFFF;}
	</style>
	<ellipse transform="matrix(0.9239 -0.3827 0.3827 0.9239 -64.584 94.426)" class="st1" cx="205.1" cy="209.6" rx="86.1" ry="86.1"/>
	<path class="st0" d="M205.1,129.1c44.4,0,80.4,36,80.4,80.4s-36,80.4-80.4,80.4c-44.4,0-80.4-36-80.4-80.4 S160.6,129.1,205.1,129.1 M205.1,117.8c-50.6,0-91.8,41.2-91.8,91.8s41.2,91.8,91.8,91.8c50.6,0,91.8-41.2,91.8-91.8 S255.7,117.8,205.1,117.8L205.1,117.8z"/>
	<path class="st2" d="M200.1,260.6c-11.5,0-22.6-5.5-29.5-14.8c-11.2-15.1-21.8-42.2-28.3-72.7c-2.4-11.4-9.7-49.6-0.6-61.3 c13.1-17,51.8-18.3,63.3-18.3c11.5,0,50.2,1.3,63.3,18.3c9.1,11.8,1.8,49.9-0.6,61.3c-6.5,30.5-17.1,57.6-28.3,72.7 c-6.9,9.3-17.9,14.8-29.5,14.8H200.1z"/>
	<path class="st0" d="M205,99.2c11.8,0,47.7,1.6,58.8,16.1c10.4,13.5-5.2,95.3-29,127.1c-5.9,7.9-15.2,12.5-24.9,12.5H205h-4.9 c-9.7,0-19-4.6-24.9-12.5c-23.8-31.9-39.4-113.6-29-127.1C157.3,100.9,193.3,99.2,205,99.2 M205,87.9c-5,0-18.1,0.3-31.7,2.8 c-17.6,3.3-29.4,9.1-36.1,17.7c-4.3,5.6-6.1,14.6-5.6,28.4c0.4,10.7,2.2,23.7,5.1,37.5c6.7,31.2,17.6,59.2,29.3,74.9 c8,10.7,20.7,17.1,34,17.1h4.9h4.9c13.3,0,26-6.4,34-17.1c11.7-15.7,22.7-43.7,29.3-74.9c3-13.8,4.7-26.8,5.1-37.5 c0.5-13.8-1.3-22.8-5.6-28.4c-6.6-8.6-18.4-14.4-36.1-17.7C223.2,88.2,210,87.9,205,87.9L205,87.9z"/>
	<path class="st3" d="M216.9,206.5c-2.3,0-4.3-1.9-4.3-4.3v-15.1l-8-8l-8,8v15.1c0,2.3-1.9,4.3-4.3,4.3s-4.3-1.9-4.3-4.3v-18.6 l16.5-16.5l16.5,16.5v18.6C221.2,204.6,219.3,206.5,216.9,206.5z"/>
	<path class="st3" d="M233.3,207.3c-2.3,0-4.3-1.9-4.3-4.3v-33l5.3-6.7v-16.7h-11.9v-9l-17.8-20l-17.8,20v9H175v16.7l5.3,6.7v33 c0,2.3-1.9,4.3-4.3,4.3s-4.3-1.9-4.3-4.3v-30l-5.3-6.7v-28.1h11.9v-3.7l26.3-29.6l26.3,29.6v3.7h11.9v28.1l-5.3,6.7v30 C237.5,205.3,235.6,207.3,233.3,207.3z"/>
	<polygon class="st3" points="208.1,161.7 201.2,161.7 201.2,154.3 204.7,151.4 208.1,154.3"/>
	<polygon class="st3" points="218.9,161.7 212,161.7 212,154.3 215.4,151.4 218.9,154.3"/>
	<polygon class="st3" points="229.7,161.7 222.8,161.7 222.8,154.3 226.2,151.4 229.7,154.3"/>
	<polygon class="st3" points="190.5,161.7 197.4,161.7 197.4,154.3 193.9,151.4 190.5,154.3"/>
	<polygon class="st3" points="179.7,161.7 186.6,161.7 186.6,154.3 183.2,151.4 179.7,154.3"/>
	<path class="st3" d="M205.1,274.4c-37.4,0-61.7-3.6-72.9-5.8c-5.8-1.1-10.5-5.4-12.2-11.1l-10.2-34.6c-1.3-4.5-0.6-9.3,2-13.2 c2.6-3.9,6.7-6.5,11.4-7c18.7-2.1,52.3-3.6,81.9-3.6s63.2,1.5,81.9,3.6c4.7,0.5,8.8,3.1,11.4,7c2.6,3.9,3.3,8.7,2,13.2 l-10.2,34.6c-1.7,5.7-6.4,10-12.2,11.1C266.8,270.7,242.4,274.4,205.1,274.4z"/>
	<path class="st0" d="M205.1,204.7c28.4,0,62.1,1.4,81.2,3.6c6.3,0.7,10.4,6.9,8.6,13l-10.2,34.6c-1.1,3.7-4.1,6.4-7.8,7.1 c-10.5,2-34.6,5.7-71.8,5.7c-37.2,0-61.3-3.7-71.8-5.7c-3.7-0.7-6.8-3.5-7.8-7.1c-2.5-8.4-7.1-24-10.2-34.6 c-1.8-6.1,2.3-12.3,8.6-13C143,206.1,176.7,204.7,205.1,204.7 M205.1,193.3c-29.8,0-63.7,1.5-82.5,3.7c-6.3,0.7-12,4.2-15.5,9.5 c-3.5,5.3-4.5,11.9-2.7,18l7.9,26.7l2.3,7.9c2.3,7.7,8.6,13.5,16.5,15c11.4,2.2,36.1,5.9,74,5.9s62.6-3.7,74-5.9 c7.9-1.5,14.3-7.3,16.5-15l10.2-34.6c1.8-6.1,0.8-12.7-2.7-18c-3.5-5.3-9.2-8.8-15.5-9.5C268.8,194.9,234.8,193.3,205.1,193.3 L205.1,193.3z"/>
	<path class="st0" d="M144.3,221.1c7.2-0.2,10.8-0.3,18-0.5c3-0.1,5.2,0.6,6.5,2c1.4,1.4,2,3.6,2,6.7c0,1.8,0,2.7,0,4.4 c0,3.1-0.7,5.4-2,6.8c-1.4,1.4-3.5,2.1-6.5,2.1c-4.1,0-6.2,0-10.3-0.1c0,3.5,0,5.2,0,8.7c-3.1-0.1-4.6-0.1-7.7-0.2 C144.3,241.1,144.3,231.1,144.3,221.1z M163.1,229.4c0-1.8-0.9-2.6-2.6-2.6c-3.4,0.1-5.1,0.1-8.6,0.1c0,3.8,0,5.7,0,9.5 c3.4,0,5.1,0,8.6,0c1.7,0,2.6-0.9,2.6-2.7C163.1,232,163.1,231.2,163.1,229.4z"/>
	<path class="st0" d="M180.5,220.3c9-0.1,13.5-0.1,22.5-0.2c0,10.1,0,15.2,0,25.3c1.3,0,1.9,0,3.2,0c0,4.9,0,7.3,0,12.2 c-2.9,0-4.4,0-7.3,0c-0.2-2.3-0.3-3.5-0.4-5.9c-6.7,0-10,0-16.7-0.1c-0.2,2.3-0.3,3.5-0.4,5.8c-2.9,0-4.4-0.1-7.3-0.1 c0-4.8,0-7.2,0-12c1.1,0,1.7,0,2.8,0c0.5-0.5,0.9-1.2,1.2-1.8c0.3-0.6,0.6-1.3,0.9-2.1c0.3-0.8,0.4-1.7,0.5-2.8 C179.8,231.3,180.1,227.6,180.5,220.3z M195.3,245.4c0-7.6,0-11.4,0-18.9c-3.2,0-4.8,0-7.9,0c-0.3,4.5-0.4,6.7-0.6,11.2 c-0.1,1.1-0.2,2.2-0.5,3.1c-0.3,0.9-0.5,1.7-0.8,2.4c-0.3,0.8-0.7,1.5-1.1,2.1C188.7,245.4,190.9,245.4,195.3,245.4z"/>
	<path class="st0" d="M220.5,251.7c-3.1,0-4.6,0-7.7,0c0-10.5,0-21,0-31.6c9.3,0,14,0.1,23.4,0.2c0,2.5,0,3.7,0,6.2 c-6.3-0.1-9.4-0.1-15.6-0.1C220.5,236.6,220.5,241.6,220.5,251.7z"/>
	<path class="st0" d="M242.6,251.5c-3.3,0-5,0.1-8.4,0.1c3.8-10.3,7.5-20.7,11.4-31c3.4,0.1,5.1,0.1,8.6,0.2 c3.7,10.1,7.5,20.2,11.4,30.3c-3.3,0.1-5,0.1-8.4,0.2c-0.8-2.2-1.2-3.2-1.9-5.4c-4.3,0-6.4,0.1-10.7,0.1 C243.8,248.2,243.4,249.3,242.6,251.5z M246.5,240.2c2.7,0,4.1,0,6.9,0c-1.4-4.1-2.1-6.2-3.4-10.3 C248.5,234,247.8,236.1,246.5,240.2z"/>
</svg>
