<svg xmlns="http://www.w3.org/2000/svg" viewBox="0 0 461.18 114.42" fill="currentColor">
  <path class="cls-1" d="m41.9,26.72h17.29c12.89,0,19.33,5.97,19.33,16.19,0,3.34-.73,6.22-2.15,8.59,10.43-.96,21.52-1.86,33.2-2.67.24-1.92.38-3.89.38-5.92,0-25.15-18.86-40.71-48.88-40.71H10.79v56.97c9.08-1.31,19.49-2.69,31.12-4.06v-28.39Z"/>
  <path class="cls-1" d="m10.68,68.05c-4.03.7-21.93,4.66.1,16v28.17h31.12v-26.56h19.17c23.63,0,40.34-11.01,46.39-27.89-40.3,2.86-73.15,6.84-96.68,10.27l-.1.02Z"/>
  <path class="cls-1" d="m301.27,85.03c-5.5,2.51-11,3.61-16.82,3.61-18.55,0-31.12-12.89-31.12-31.43,0-1.01.04-1.99.11-2.96-18.09-.37-35.38-.44-51.78-.26.08,1.05.13,2.12.13,3.23,0,19.02-12.57,28.67-31.28,28.67h-19.65v-30.56c-10.97.46-21.36,1.02-31.12,1.63v55.28h52.02c26.16,0,46.41-10.92,55.76-29.56,9.4,19.43,29.76,31.77,55.03,31.77,16.03,0,33.48-4.87,46.21-13.99v-42.94c-9.32-.61-18.49-1.13-27.5-1.58v29.11Z"/>
  <path class="cls-1" d="m150.87,27.03h19.65c14.34,0,25.07,6.57,29.3,18.2,17.47-.2,35.95-.14,55.34.28,4.12-12.25,14.97-19.74,29.61-19.74,10.53,0,19.17,3.93,26.72,12.26l19.8-17.92c-10.84-13.05-27.5-20.12-48.09-20.12-25.73,0-46.22,12.34-55.65,31.78-9.36-18.65-29.61-29.58-55.77-29.58h-52.02v45.95c9.77-.61,20.16-1.16,31.12-1.62v-19.5Z"/>
  <path class="cls-1" d="m397.23,32.67l9.12,22.82c10.45,1.18,20.91,2.63,31.61,4.05l-25.27-57.34h-30.5s-21.42,48.84-21.42,48.84c9.3.78,18.47,1.68,28.01,2.65l8.46-21.01Z"/>
  <path class="cls-1" d="m333.85,112.21h31.6s10.58-26.43,10.58-26.43h42.32s10.59,26.43,10.59,26.43h32.24s-12.56-28.48-12.56-28.48c15.74-10.29-.22-13.98-5.66-14.76l-.16-.02c-29.67-4.04-58.17-7.16-85.8-9.44l-23.15,52.7Z"/>
  <path class="cls-1" d="m447.15,9.9c0,4.37-3.4,7.79-7.77,7.79s-7.72-3.42-7.72-7.74,3.36-7.74,7.77-7.74,7.72,3.33,7.72,7.7Zm-1.27,0c0-3.69-2.72-6.49-6.45-6.49s-6.52,2.87-6.52,6.54,2.76,6.54,6.47,6.54,6.49-2.9,6.49-6.58Zm-4.31,1.4l1.93,2.96h-1.89l-1.71-2.63h-1.95v2.63h-1.89V5.62h3.6c2.28,0,3.64,1.19,3.64,3.01,0,1.29-.61,2.22-1.73,2.68Zm-2.02-1.14c1.23,0,1.93-.57,1.93-1.54s-.7-1.51-1.93-1.51h-1.62v3.05h1.62Z"/>
</svg>
