<svg viewBox="0 0 24 24" xmlns="http://www.w3.org/2000/svg">
  <path fill-rule="evenodd" clip-rule="evenodd" d="M12 6.50001C10.067 6.50001 8.5 8.06701 8.5 10C8.5 11.933 10.067 13.5 12 13.5C13.933 13.5 15.5 11.933 15.5 10C15.5 8.06701 13.933 6.50001 12 6.50001ZM9.5 10C9.5 8.6193 10.6193 7.50001 12 7.50001C13.3807 7.50001 14.5 8.6193 14.5 10C14.5 11.3807 13.3807 12.5 12 12.5C10.6193 12.5 9.5 11.3807 9.5 10Z" fill="currentColor" />
  <path fill-rule="evenodd" clip-rule="evenodd" d="M20 10.1818C20 16.5455 12 22 12 22C12 22 4 16.5455 4 10.1818C4 8.01187 4.84285 5.93079 6.34315 4.3964C7.84344 2.86201 9.87827 2 12 2C14.1217 2 16.1566 2.86201 17.6569 4.3964C19.1571 5.93079 20 8.01187 20 10.1818ZM19 10.1818C19 12.9701 17.2249 15.6834 15.2664 17.7977C14.3062 18.8342 13.3428 19.683 12.6185 20.2729C12.3835 20.4643 12.1745 20.6277 12 20.7608C11.8255 20.6277 11.6165 20.4643 11.3815 20.2729C10.6572 19.683 9.69377 18.8342 8.73362 17.7977C6.77507 15.6834 5 12.9701 5 10.1818C5 8.26992 5.74283 6.44073 7.05815 5.09552C8.37273 3.75107 10.1508 3 12 3C13.8492 3 15.6273 3.75107 16.9418 5.09552C18.2572 6.44073 19 8.26992 19 10.1818Z" fill="currentColor" />
</svg>
