<svg viewBox="0 0 12 7" xmlns="http://www.w3.org/2000/svg">
<path d="M1.35355 0.646447C1.15829 0.451184 0.841709 0.451184 0.646447 0.646447C0.451184 0.841709 0.451184 1.15829 0.646447 1.35355L1.35355 0.646447ZM6 6L5.64645 6.35355C5.84171 6.54882 6.15829 6.54882 6.35355 6.35355L6 6ZM11.3536 1.35355C11.5488 1.15829 11.5488 0.841709 11.3536 0.646447C11.1583 0.451184 10.8417 0.451184 10.6464 0.646447L11.3536 1.35355ZM0.646447 1.35355L5.64645 6.35355L6.35355 5.64645L1.35355 0.646447L0.646447 1.35355ZM6.35355 6.35355L11.3536 1.35355L10.6464 0.646447L5.64645 5.64645L6.35355 6.35355Z" fill="currentColor" />
</svg>
