<svg viewbox="0 0 448 519" xmlns="http://www.w3.org/2000/svg">
<path fill="#f1d38b" d="M 355.5,364.5 C 353.692,364.491 352.025,364.991 350.5,366C 381.832,366.5 413.165,366.667 444.5,366.5C 444.5,379.5 444.5,392.5 444.5,405.5C 443.118,436.362 435.785,465.695 422.5,493.5C 368.833,493.5 315.167,493.5 261.5,493.5C 261.5,501.167 261.5,508.833 261.5,516.5C 235.833,516.5 210.167,516.5 184.5,516.5C 184.5,508.833 184.5,501.167 184.5,493.5C 131.833,493.5 79.1667,493.5 26.5,493.5C 12.7237,464.06 5.39036,433.06 4.5,400.5C 4.5,389.167 4.5,377.833 4.5,366.5C 37.0043,366.832 69.3376,366.498 101.5,365.5C 81.7435,341.98 68.9102,314.98 63,284.5C 60.2824,270.86 57.7824,257.193 55.5,243.5C 36.5698,232.03 32.0698,216.364 42,196.5C 45.2467,192.341 48.2467,188.008 51,183.5C 51.5619,170.132 51.0619,156.799 49.5,143.5C 37.8373,139.004 26.5039,133.837 15.5,128C 0.965779,112.791 -0.200887,96.6246 12,79.5C 17.833,73.3339 24.9997,70.0006 33.5,69.5C 33.5,47.1667 33.5,24.8333 33.5,2.5C 160.834,2.33333 288.167,2.5 415.5,3C 416.495,30.0925 416.828,57.2592 416.5,84.5C 410.833,84.5 405.167,84.5 399.5,84.5C 399.253,126.526 398.086,168.526 396,210.5C 394.402,243.086 389.236,275.086 380.5,306.5C 383.148,316.351 383.981,326.351 383,336.5C 378.981,351.018 369.815,360.351 355.5,364.5 Z"/>
<path fill="currentColor" d="M 54.5,15.5 C 167.833,15.5 281.167,15.5 394.5,15.5C 394.5,33.5 394.5,51.5 394.5,69.5C 281.167,69.5 167.833,69.5 54.5,69.5C 54.5,51.5 54.5,33.5 54.5,15.5 Z"/>
<path fill="currentColor" d="M 241.5,84.5 C 258.009,84.1702 274.342,84.5036 290.5,85.5C 269.075,116.659 249.909,149.326 233,183.5C 224.56,201.255 220.56,219.921 221,239.5C 222.277,250.771 228.111,258.604 238.5,263C 245.103,264.163 251.77,264.83 258.5,265C 254.777,267.243 250.777,268.91 246.5,270C 199.57,278.405 179.403,258.905 186,211.5C 189.314,193.557 194.648,176.223 202,159.5C 213.636,133.557 226.802,108.557 241.5,84.5 Z"/>
<path fill="currentColor" d="M 301.5,84.5 C 328.5,84.5 355.5,84.5 382.5,84.5C 382.5,92.8333 382.5,101.167 382.5,109.5C 381.711,138.873 380.211,168.207 378,197.5C 356.784,214.696 333.951,229.529 309.5,242C 295.869,247.989 281.869,252.989 267.5,257C 259.542,258.39 251.542,258.723 243.5,258C 234.823,255.321 229.657,249.488 228,240.5C 226.893,227.366 228.893,214.699 234,202.5C 252.172,160.466 274.672,121.133 301.5,84.5 Z"/>
<path fill="#c49f46" d="M 69.5,86.5 C 115.838,86.1667 162.171,86.5001 208.5,87.5C 208.376,88.1067 208.043,88.44 207.5,88.5C 162.167,87.1667 116.833,87.1667 71.5,88.5C 70.5,88.1667 69.8333,87.5 69.5,86.5 Z"/>
<path fill="#a47a18" d="M 71.5,88.5 C 116.833,87.1667 162.167,87.1667 207.5,88.5C 199.607,102.953 192.273,117.62 185.5,132.5C 168.708,119.547 152.042,106.381 135.5,93C 128.294,88.4058 120.628,87.4058 112.5,90C 107.435,92.4035 102.935,95.5702 99,99.5C 89.8493,95.729 80.6826,92.0624 71.5,88.5 Z"/>
<path fill="#a47a18" d="M 70.5,145.5 C 76.1455,147.653 81.8122,149.82 87.5,152C 93.2182,152.516 98.8849,152.516 104.5,152C 116.644,161.31 128.644,170.81 140.5,180.5C 144.746,199.034 148.579,217.701 152,236.5C 151.779,244.824 151.779,253.157 152,261.5C 152.739,265.385 154.073,269.052 156,272.5C 176.5,295 197,317.5 217.5,340C 223.245,343.872 229.578,346.038 236.5,346.5C 238.869,358.711 245.869,367.211 257.5,372C 250.833,372.667 244.167,372.667 237.5,372C 229.288,367.727 220.955,363.727 212.5,360C 207.896,358.939 203.229,358.273 198.5,358C 184.5,343.333 170.5,328.667 156.5,314C 154.919,313.293 153.419,312.46 152,311.5C 149.963,290.911 147.463,270.411 144.5,250C 151.132,237.661 149.465,226.661 139.5,217C 122.325,205.246 105.325,193.246 88.5,181C 82.8649,178.068 76.8649,176.901 70.5,177.5C 70.5,166.833 70.5,156.167 70.5,145.5 Z"/>
<path fill="#a67c1a" d="M 167.5,188.5 C 166.189,193.061 165.522,197.728 165.5,202.5C 164.883,202.389 164.383,202.056 164,201.5C 163.626,197.204 162.793,193.037 161.5,189C 163,188.5 164.5,188 166,187.5C 166.765,187.57 167.265,187.903 167.5,188.5 Z"/>
<path fill="#a47a19" d="M 365.5,287.5 C 358.762,280.299 350.429,276.633 340.5,276.5C 319.106,279.279 297.939,283.279 277,288.5C 272.623,283.627 268.456,278.627 264.5,273.5C 304.335,259.919 341.001,240.586 374.5,215.5C 374.296,239.798 371.296,263.798 365.5,287.5 Z"/>
<path fill="#a67c1b" d="M 77.5,251.5 C 81.1773,254.336 85.0107,257.003 89,259.5C 90.883,278.351 93.0497,297.184 95.5,316C 95.4857,317.385 95.1524,318.551 94.5,319.5C 85.6998,297.632 80.0331,274.966 77.5,251.5 Z"/>
<path fill="#a57b19" d="M 174.5,259.5 C 184.662,274.332 198.828,281.666 217,281.5C 225.198,281.13 233.365,280.463 241.5,279.5C 246.573,283.066 251.24,287.232 255.5,292C 239.266,297.599 231.266,309.099 231.5,326.5C 229.063,325.197 226.896,323.53 225,321.5C 209.036,303.201 192.703,285.201 176,267.5C 174.36,265.421 173.194,263.088 172.5,260.5C 172.957,259.702 173.624,259.369 174.5,259.5 Z"/>
<path fill="#e8bd57" d="M 69.5,86.5 C 69.8333,87.5 70.5,88.1667 71.5,88.5C 80.6826,92.0624 89.8493,95.729 99,99.5C 102.935,95.5702 107.435,92.4035 112.5,90C 120.628,87.4058 128.294,88.4058 135.5,93C 152.042,106.381 168.708,119.547 185.5,132.5C 177.937,150.781 171.937,169.447 167.5,188.5C 167.265,187.903 166.765,187.57 166,187.5C 164.5,188 163,188.5 161.5,189C 162.793,193.037 163.626,197.204 164,201.5C 164.383,202.056 164.883,202.389 165.5,202.5C 161.789,222.674 164.789,241.674 174.5,259.5C 173.624,259.369 172.957,259.702 172.5,260.5C 173.194,263.088 174.36,265.421 176,267.5C 192.703,285.201 209.036,303.201 225,321.5C 226.896,323.53 229.063,325.197 231.5,326.5C 231.266,309.099 239.266,297.599 255.5,292C 251.24,287.232 246.573,283.066 241.5,279.5C 249.09,277.685 256.757,275.685 264.5,273.5C 268.456,278.627 272.623,283.627 277,288.5C 297.939,283.279 319.106,279.279 340.5,276.5C 350.429,276.633 358.762,280.299 365.5,287.5C 368.181,291.528 370.347,295.861 372,300.5C 374.182,310.771 375.516,321.105 376,331.5C 374.05,343.453 367.55,351.953 356.5,357C 344.504,359.566 332.504,362.066 320.5,364.5C 306.795,366.767 293.129,369.267 279.5,372C 289.828,372.5 300.161,372.666 310.5,372.5C 287.337,373.332 264.004,373.832 240.5,374C 247.84,377.003 254.84,380.503 261.5,384.5C 249.167,384.5 236.833,384.5 224.5,384.5C 220.84,382.003 216.84,380.003 212.5,378.5C 211.534,380.396 211.201,382.396 211.5,384.5C 198.5,384.5 185.5,384.5 172.5,384.5C 174.153,381.193 175.82,377.86 177.5,374.5C 166.849,373.334 156.182,373.168 145.5,374C 148.336,377.667 151.336,381.167 154.5,384.5C 145.167,384.5 135.833,384.5 126.5,384.5C 119.541,376.371 112.374,368.371 105,360.5C 102.08,346.668 98.5803,333.002 94.5,319.5C 95.1524,318.551 95.4857,317.385 95.5,316C 93.0497,297.184 90.883,278.351 89,259.5C 85.0107,257.003 81.1773,254.336 77.5,251.5C 66.9268,244.434 56.7602,236.767 47,228.5C 41.4042,219.4 41.0709,210.067 46,200.5C 50.137,194.396 54.637,188.563 59.5,183C 62.9905,180.588 66.6571,178.755 70.5,177.5C 76.8649,176.901 82.8649,178.068 88.5,181C 105.325,193.246 122.325,205.246 139.5,217C 149.465,226.661 151.132,237.661 144.5,250C 147.463,270.411 149.963,290.911 152,311.5C 153.419,312.46 154.919,313.293 156.5,314C 170.5,328.667 184.5,343.333 198.5,358C 203.229,358.273 207.896,358.939 212.5,360C 220.955,363.727 229.288,367.727 237.5,372C 244.167,372.667 250.833,372.667 257.5,372C 245.869,367.211 238.869,358.711 236.5,346.5C 229.578,346.038 223.245,343.872 217.5,340C 197,317.5 176.5,295 156,272.5C 154.073,269.052 152.739,265.385 152,261.5C 151.779,253.157 151.779,244.824 152,236.5C 148.579,217.701 144.746,199.034 140.5,180.5C 128.644,170.81 116.644,161.31 104.5,152C 98.8849,152.516 93.2182,152.516 87.5,152C 81.8122,149.82 76.1455,147.653 70.5,145.5C 53.9753,138.261 37.3086,131.094 20.5,124C 8.79082,113.779 6.29082,101.613 13,87.5C 21.1235,76.7922 31.6235,73.2922 44.5,77C 52.6445,80.7421 60.9779,83.9087 69.5,86.5 Z"/>
<path fill="#a57b19" d="M 125.5,269.5 C 126.222,269.918 126.722,270.584 127,271.5C 127.801,283.038 128.967,294.538 130.5,306C 130.167,307.833 129.833,309.667 129.5,311.5C 124.695,313.992 120.528,317.325 117,321.5C 114.909,305.185 113.076,288.851 111.5,272.5C 116.546,272.735 121.213,271.735 125.5,269.5 Z"/>
<path fill="#a77d1b" d="M 114.5,247.5 C 119.324,246.37 122.158,248.037 123,252.5C 119.583,254.786 116.083,254.952 112.5,253C 111.08,250.426 111.747,248.593 114.5,247.5 Z"/>
<path fill="#f2d389" d="M 72.5,202.5 C 73.014,208.822 73.3473,215.155 73.5,221.5C 73.719,222.675 73.3857,223.675 72.5,224.5C 55.9378,215.66 55.2711,205.66 70.5,194.5C 71.1676,197.306 71.8343,199.972 72.5,202.5 Z"/>
<path fill="#a47a18" d="M 73.5,221.5 C 73.3473,215.155 73.014,208.822 72.5,202.5C 72.5,199.833 72.5,197.167 72.5,194.5C 74.1992,194.34 75.8659,194.506 77.5,195C 94.0077,206.087 110.341,217.42 126.5,229C 132.165,234.675 131.498,235.675 124.5,232C 119.5,231.333 114.5,231.333 109.5,232C 104.367,234.067 99.6999,236.9 95.5,240.5C 88.5568,236.223 81.8901,231.556 75.5,226.5C 74.8302,224.709 74.1635,223.042 73.5,221.5 Z"/>
<path fill="#a57b19" d="M 161.5,159.5 C 166.225,158.524 169.892,160.024 172.5,164C 169.477,169.014 165.143,171.014 159.5,170C 157.807,166.005 158.474,162.505 161.5,159.5 Z"/>
<path fill="#b38926" d="M 103.5,119.5 C 106.236,121.858 107.07,124.858 106,128.5C 104.092,125.794 103.259,122.794 103.5,119.5 Z"/>
<path fill="#a57b19" d="M 115.5,105.5 C 119.463,105.089 123.13,105.922 126.5,108C 141.317,120.24 156.317,132.24 171.5,144C 159.026,142.572 149.359,147.072 142.5,157.5C 134.5,151.167 126.5,144.833 118.5,138.5C 123.701,127.024 122.034,116.69 113.5,107.5C 114.243,106.818 114.909,106.151 115.5,105.5 Z"/>
<path fill="#a47a18" d="M 69.5,104.5 C 76.1667,106.833 82.8333,109.167 89.5,111.5C 88.9782,114.568 88.1449,117.568 87,120.5C 86.6915,125.622 86.5249,130.622 86.5,135.5C 80.89,132.965 75.2234,130.632 69.5,128.5C 69.5,120.5 69.5,112.5 69.5,104.5 Z"/>
<path fill="#f2d48a" d="M 69.5,104.5 C 69.5,112.5 69.5,120.5 69.5,128.5C 55.8215,122.771 42.1548,116.938 28.5,111C 24.3627,106.413 23.5294,101.247 26,95.5C 28.4674,92.7686 31.4674,91.1019 35,90.5C 47.008,94.1089 58.508,98.7755 69.5,104.5 Z"/>
<path fill="#a47a18" d="M 355.5,317.5 C 351.675,325.819 347.342,333.819 342.5,341.5C 319.933,345.972 297.266,350.139 274.5,354C 266.367,355.553 260.867,352.387 258,344.5C 257.333,342.5 257.333,340.5 258,338.5C 266.475,332.362 273.141,324.695 278,315.5C 278.953,312.568 279.453,309.568 279.5,306.5C 298.106,302.479 316.773,298.645 335.5,295C 344.422,292.929 350.589,296.095 354,304.5C 354.923,308.79 355.423,313.123 355.5,317.5 Z"/>
<path fill="#f1d288" d="M 355.5,317.5 C 358.636,324.642 357.969,331.475 353.5,338C 350.178,340.332 346.511,341.498 342.5,341.5C 347.342,333.819 351.675,325.819 355.5,317.5 Z"/>
<path fill="#a77d1b" d="M 131.5,329.5 C 132.931,335.242 130.598,337.742 124.5,337C 127.039,334.63 129.372,332.13 131.5,329.5 Z"/>
<path fill="#a47a18" d="M 150.5,337.5 C 161.441,346.607 171.608,356.607 181,367.5C 181.163,369.387 180.329,370.887 178.5,372C 167.167,372.667 155.833,372.667 144.5,372C 138.652,366.319 132.985,360.485 127.5,354.5C 138.373,352.935 146.039,347.269 150.5,337.5 Z"/>
<path fill="#a87e1c" d="M 320.5,364.5 C 317.48,367.516 314.146,370.183 310.5,372.5C 300.161,372.666 289.828,372.5 279.5,372C 293.129,369.267 306.795,366.767 320.5,364.5 Z"/>
<path fill="currentColor" d="M 425.5,398.5 C 424.674,424.793 419.34,450.127 409.5,474.5C 286.168,475.5 162.835,475.833 39.5,475.5C 29.8205,450.771 24.4872,425.104 23.5,398.5C 23.5,394.167 23.5,389.833 23.5,385.5C 157.5,385.5 291.5,385.5 425.5,385.5C 425.5,389.833 425.5,394.167 425.5,398.5 Z"/>
</svg>
