<svg xmlns="http://www.w3.org/2000/svg" viewBox="0 0 2280 354" style="fill-rule:evenodd;">
<path fill="#c7c7c7" d="M 91.5,1.5 C 114.065,-1.11226 135.399,2.72108 155.5,13C 173.412,24.63 183.912,41.13 187,62.5C 188.052,69.1276 188.552,75.7943 188.5,82.5C 171.102,86.5162 153.769,90.8495 136.5,95.5C 135.966,83.688 132.799,72.688 127,62.5C 114.812,50.7485 101.646,49.5818 87.5,59C 79.5025,68.657 75.6692,79.8236 76,92.5C 75.3333,151.167 75.3333,209.833 76,268.5C 77.4616,295.639 91.295,305.805 117.5,299C 126.895,292.72 132.061,283.886 133,272.5C 133.499,268.179 133.666,263.846 133.5,259.5C 151.483,262.045 169.483,264.545 187.5,267C 189.123,292.758 181.123,315.092 163.5,334C 151.101,344.471 136.768,350.471 120.5,352C 100.232,354.382 80.5655,352.049 61.5,345C 40.1998,333.998 27.6998,316.498 24,292.5C 23.0023,285.533 22.3357,278.533 22,271.5C 21.3333,211.5 21.3333,151.5 22,91.5C 22.0102,72.1098 26.3435,53.7765 35,36.5C 48.3371,16.0026 67.1705,4.33595 91.5,1.5 Z"/>
<path fill="#c7c7c7" d="M 1091.5,1.5 C 1108.75,0.473615 1125.75,1.97362 1142.5,6C 1162.97,13.1407 1176.81,26.974 1184,47.5C 1186.44,55.677 1188.1,64.0103 1189,72.5C 1190.61,136.82 1190.94,201.153 1190,265.5C 1190.5,288.168 1184.5,308.835 1172,327.5C 1158.43,342.203 1141.59,350.369 1121.5,352C 1101.7,354.15 1082.36,352.15 1063.5,346C 1041.36,335.844 1028.19,318.677 1024,294.5C 1023.11,289.53 1022.45,284.53 1022,279.5C 1021.33,213.167 1021.33,146.833 1022,80.5C 1022.64,55.2106 1032.14,34.0439 1050.5,17C 1063.02,8.55249 1076.69,3.38582 1091.5,1.5 Z M 1099.5,52.5 C 1108.01,51.5081 1116.01,53.0081 1123.5,57C 1131.26,65.5938 1135.09,75.7605 1135,87.5C 1135.96,150.187 1135.63,212.853 1134,275.5C 1129.06,297.562 1115.56,305.729 1093.5,300C 1084.21,294.963 1078.71,287.129 1077,276.5C 1076.33,211.833 1076.33,147.167 1077,82.5C 1078.43,67.6151 1085.93,57.6151 1099.5,52.5 Z"/>
<path fill="#c7c7c7" d="M 211.5,4.5 C 266.833,4.5 322.167,4.5 377.5,4.5C 377.5,21.5 377.5,38.5 377.5,55.5C 359.167,55.5 340.833,55.5 322.5,55.5C 322.5,153.5 322.5,251.5 322.5,349.5C 304.167,349.5 285.833,349.5 267.5,349.5C 267.5,251.5 267.5,153.5 267.5,55.5C 248.833,55.5 230.167,55.5 211.5,55.5C 211.5,38.5 211.5,21.5 211.5,4.5 Z"/>
<path fill="#c7c7c7" d="M 414.5,4.5 C 465.833,4.5 517.167,4.5 568.5,4.5C 568.5,21.5 568.5,38.5 568.5,55.5C 535.167,55.5 501.833,55.5 468.5,55.5C 468.5,86.5 468.5,117.5 468.5,148.5C 497.5,148.5 526.5,148.5 555.5,148.5C 555.5,165.833 555.5,183.167 555.5,200.5C 526.5,200.5 497.5,200.5 468.5,200.5C 468.5,233.167 468.5,265.833 468.5,298.5C 501.833,298.5 535.167,298.5 568.5,298.5C 568.5,315.5 568.5,332.5 568.5,349.5C 517.167,349.5 465.833,349.5 414.5,349.5C 414.5,234.5 414.5,119.5 414.5,4.5 Z"/>
<path fill="#c7c7c7" d="M 612.5,4.5 C 643.502,4.33335 674.502,4.50002 705.5,5C 742.203,7.57578 765.703,26.4091 776,61.5C 783.81,96.0038 783.143,130.337 774,164.5C 761.636,196.63 738.136,214.13 703.5,217C 691.171,217.5 678.838,217.667 666.5,217.5C 666.5,261.5 666.5,305.5 666.5,349.5C 648.5,349.5 630.5,349.5 612.5,349.5C 612.5,234.5 612.5,119.5 612.5,4.5 Z M 666.5,55.5 C 677.216,55.1557 687.882,55.6557 698.5,57C 712.45,59.6164 721.284,67.7831 725,81.5C 729.644,100.829 729.644,120.163 725,139.5C 720.598,154.903 710.431,163.403 694.5,165C 685.173,165.5 675.839,165.666 666.5,165.5C 666.5,128.833 666.5,92.1667 666.5,55.5 Z"/>
<path fill="#c7c7c7" d="M 826.5,4.5 C 877.833,4.5 929.167,4.5 980.5,4.5C 980.5,21.5 980.5,38.5 980.5,55.5C 947.167,55.5 913.833,55.5 880.5,55.5C 880.5,86.5 880.5,117.5 880.5,148.5C 909.5,148.5 938.5,148.5 967.5,148.5C 967.5,165.833 967.5,183.167 967.5,200.5C 938.5,200.5 909.5,200.5 880.5,200.5C 880.5,233.167 880.5,265.833 880.5,298.5C 913.833,298.5 947.167,298.5 980.5,298.5C 980.5,315.5 980.5,332.5 980.5,349.5C 929.167,349.5 877.833,349.5 826.5,349.5C 826.5,234.5 826.5,119.5 826.5,4.5 Z"/>
<path fill="#17b5e8" d="M 1274.5,4.5 C 1328.83,4.5 1383.17,4.5 1437.5,4.5C 1437.5,119.5 1437.5,234.5 1437.5,349.5C 1419.17,349.5 1400.83,349.5 1382.5,349.5C 1382.5,251.833 1382.5,154.167 1382.5,56.5C 1364.83,56.5 1347.17,56.5 1329.5,56.5C 1329.5,154.167 1329.5,251.833 1329.5,349.5C 1311.17,349.5 1292.83,349.5 1274.5,349.5C 1274.5,234.5 1274.5,119.5 1274.5,4.5 Z"/>
<path fill="#17b5e8" d="M 1495.5,4.5 C 1513.17,4.5 1530.83,4.5 1548.5,4.5C 1548.33,77.1674 1548.5,149.834 1549,222.5C 1573.59,150.41 1597.59,78.0763 1621,5.5C 1638.76,4.50775 1656.59,4.17441 1674.5,4.5C 1674.5,119.5 1674.5,234.5 1674.5,349.5C 1656.5,349.5 1638.5,349.5 1620.5,349.5C 1620.67,278.166 1620.5,206.833 1620,135.5C 1596.07,206.463 1572.23,277.463 1548.5,348.5C 1530.85,349.5 1513.18,349.833 1495.5,349.5C 1495.5,234.5 1495.5,119.5 1495.5,4.5 Z"/>
<path fill="#17b5e8" d="M 1708.5,4.5 C 1763.83,4.5 1819.17,4.5 1874.5,4.5C 1874.5,21.5 1874.5,38.5 1874.5,55.5C 1856.17,55.5 1837.83,55.5 1819.5,55.5C 1819.5,153.5 1819.5,251.5 1819.5,349.5C 1801.17,349.5 1782.83,349.5 1764.5,349.5C 1764.5,251.5 1764.5,153.5 1764.5,55.5C 1745.83,55.5 1727.17,55.5 1708.5,55.5C 1708.5,38.5 1708.5,21.5 1708.5,4.5 Z"/>
<path fill="#17b5e8" d="M 1911.5,4.5 C 1962.83,4.5 2014.17,4.5 2065.5,4.5C 2065.5,21.5 2065.5,38.5 2065.5,55.5C 2032.17,55.5 1998.83,55.5 1965.5,55.5C 1965.5,86.5 1965.5,117.5 1965.5,148.5C 1994.5,148.5 2023.5,148.5 2052.5,148.5C 2052.5,165.833 2052.5,183.167 2052.5,200.5C 2023.5,200.5 1994.5,200.5 1965.5,200.5C 1965.5,233.167 1965.5,265.833 1965.5,298.5C 1998.83,298.5 2032.17,298.5 2065.5,298.5C 2065.5,315.5 2065.5,332.5 2065.5,349.5C 2014.17,349.5 1962.83,349.5 1911.5,349.5C 1911.5,234.5 1911.5,119.5 1911.5,4.5 Z"/>
<path fill="#17b5e8" d="M 2109.5,4.5 C 2140.5,4.33335 2171.5,4.50002 2202.5,5C 2241,7.98071 2264.84,28.1474 2274,65.5C 2280.69,98.7472 2279.69,131.747 2271,164.5C 2258.36,196.458 2234.86,213.958 2200.5,217C 2188.17,217.5 2175.84,217.667 2163.5,217.5C 2163.5,261.5 2163.5,305.5 2163.5,349.5C 2145.5,349.5 2127.5,349.5 2109.5,349.5C 2109.5,234.5 2109.5,119.5 2109.5,4.5 Z M 2163.5,55.5 C 2174.22,55.1557 2184.88,55.6557 2195.5,57C 2211.06,60.2496 2220.22,69.7496 2223,85.5C 2226.33,102.167 2226.33,118.833 2223,135.5C 2219.55,152.948 2209.05,162.781 2191.5,165C 2182.17,165.5 2172.84,165.666 2163.5,165.5C 2163.5,128.833 2163.5,92.1667 2163.5,55.5 Z"/>
</svg>
