<svg xmlns="http://www.w3.org/2000/svg" viewBox="0 0 230.6398 45.1199">
   <path style="fill:#5b5b6b;fill-rule:evenodd" d="m 60.801,36.8085 6.4027,-14.6047 -6.0093,-14.2485 4.972,0 5.2581,13.7142 0.2506,0 0,-13.7142 4.2568,0 0,13.7142 0.2857,0 5.2226,-13.7142 5.0081,0 -6.0093,14.2485 6.4022,14.6047 -4.864,0 -5.7236,-14.213 -0.3217,0 0,14.213 -4.2568,0 0,-14.213 -0.2863,0 -5.7233,14.213 -4.8645,0 z" />
   <path style="fill:#5b5b6b;fill-rule:evenodd" d="m 90.6441,36.8085 0,-20.5892 3.9708,0 0,12.3962 5.7946,-12.3962 3.7916,0 0,20.5892 -3.9707,0 0,-12.3963 -5.687,12.3963 -3.8993,0 z" />
   <path style="fill:#5b5b6b;fill-rule:evenodd" d="m 108.4007,37.0222 0,-3.5266 c 0.7387,0 1.3352,-0.1307 1.7882,-0.3919 0.453,-0.2612 0.8107,-0.7004 1.0732,-1.318 0.2625,-0.6412 0.4649,-1.4961 0.6084,-2.5645 0.1432,-1.0925 0.2738,-2.4579 0.3929,-4.0964 l 0.5724,-8.9055 12.0194,0 0,20.5892 -4.8646,0 0,-17.1695 -2.9695,0 -0.4292,6.0556 c -0.1432,2.2559 -0.3577,4.1201 -0.6435,5.5926 -0.2625,1.4723 -0.6682,2.6239 -1.2164,3.4553 -0.5245,0.831 -1.24,1.4248 -2.146,1.7809 -0.9069,0.3325 -2.0635,0.4988 -3.4698,0.4988 l -0.7155,0 z" />
   <path style="fill:#5b5b6b;fill-rule:evenodd" d="m 130.3757,36.8085 0,-20.5892 3.9708,0 0,12.3962 5.7949,-12.3962 3.7913,0 0,20.5892 -3.9707,0 0,-12.3963 -5.687,12.3963 -3.8993,0 z" />
   <path style="fill:#5b5b6b;fill-rule:evenodd" d="m 149.8493,36.8085 0,-28.8532 13.4499,0 0,3.9183 -8.1913,0 0,8.1929 1.1445,0 c 1.9554,0 3.5889,0.2731 4.9,0.8194 1.336,0.5224 2.3373,1.4009 3.0049,2.6359 0.6682,1.211 1.0018,2.8495 1.0018,4.9155 0,1.615 -0.2032,2.9684 -0.608,4.061 -0.406,1.0686 -1.0135,1.9236 -1.8243,2.5645 -0.7869,0.6415 -1.7408,1.0925 -2.8623,1.3537 -1.1203,0.2612 -2.3963,0.392 -3.8267,0.392 l -6.1885,0 z m 5.2586,-3.5622 0.9653,0 c 1.0021,0 1.8129,-0.1426 2.4323,-0.4274 0.6203,-0.2851 1.0733,-0.7836 1.359,-1.4962 0.2866,-0.7361 0.4179,-1.7334 0.3938,-2.9922 -0.0238,-1.4962 -0.3337,-2.6359 -0.9299,-3.4195 -0.5723,-0.7839 -1.681,-1.1755 -3.3266,-1.1755 l -0.8939,0 0,9.5108 z" />
   <path style="fill:#5b5b6b;fill-rule:evenodd" d="m 170.0376,36.8085 0,-20.5892 4.8649,0 0,8.3711 c 0.0479,0 0.0952,0 0.1431,0 0.0479,0 0.0953,0 0.1432,0 0.0473,0 0.0833,0 0.1074,0 1.4302,0.0236 2.6588,0.1305 3.6842,0.3206 1.0494,0.1899 1.9072,0.5105 2.5757,0.9618 0.6914,0.4511 1.2037,1.0684 1.5376,1.8523 0.3337,0.7597 0.5009,1.7454 0.5009,2.9564 0,1.1162 -0.155,2.066 -0.4649,2.8496 -0.2866,0.76 -0.7747,1.3893 -1.4664,1.8881 -0.6682,0.4749 -1.5504,0.8311 -2.6469,1.0687 -1.0733,0.2137 -2.3731,0.3206 -3.8996,0.3206 l -5.0792,0 z m 4.8649,-2.7786 0.1791,0 c 1.0495,0 1.8713,-0.0949 2.4677,-0.285 0.5962,-0.2138 1.0141,-0.558 1.2519,-1.0329 0.2625,-0.4988 0.3938,-1.1755 0.3938,-2.0305 0,-0.8074 -0.1194,-1.4367 -0.3578,-1.8878 -0.2387,-0.4749 -0.6557,-0.8194 -1.2519,-1.0331 -0.5723,-0.2137 -1.3712,-0.3206 -2.3965,-0.3206 -0.0238,0 -0.072,0 -0.1432,0 -0.0479,0 -0.0952,0 -0.1431,0 l 0,6.5899 z m 10.9813,2.7786 0,-20.5892 4.8648,0 0,20.5892 -4.8648,0 z" />
   <path style="fill:#5b5b6b;fill-rule:evenodd" d="m 194.9204,37.0222 0,-3.5266 c 0.739,0 1.3352,-0.1307 1.7882,-0.3919 0.453,-0.2612 0.8107,-0.7004 1.0732,-1.318 0.2625,-0.6412 0.4652,-1.4961 0.6084,-2.5645 0.1426,-1.0925 0.2738,-2.4579 0.3929,-4.0964 l 0.5724,-8.9055 12.0188,0 0,20.5892 -4.864,0 0,-17.1695 -2.9695,0 -0.4289,6.0556 c -0.1434,2.2559 -0.358,4.1201 -0.6444,5.5926 -0.2619,1.4723 -0.6676,2.6239 -1.2158,3.4553 -0.525,0.831 -1.24,1.4248 -2.146,1.7809 -0.9069,0.3325 -2.0635,0.4988 -3.4698,0.4988 l -0.7155,0 z" />
   <path style="fill:#5b5b6b;fill-rule:evenodd" d="m 216.8954,36.8085 0,-20.5892 3.9708,0 0,12.3962 5.7949,-12.3962 3.7914,0 0,20.5892 -3.9708,0 0,-12.3963 -5.6875,12.3963 -3.8988,0 z" />
   <path style="fill:#ff5876;fill-rule:evenodd" d="m 45.1215,22.56 c 0,12.4593 -10.1428,22.5599 -22.6546,22.5599 C 9.9551,45.1199 -0.1877,35.0193 -0.1877,22.56 -0.1877,10.1006 9.9551,0 22.4669,0 34.9787,0 45.1215,10.1006 45.1215,22.56 Z" />
   <path style="fill:#ffffff;fill-rule:evenodd" d="m 31.2008,26.5234 c -3.7366,4.2559 -12.6703,5.4275 -19.4898,6.6462 0.303,-6.8926 0.2764,-15.8657 4.0133,-20.1216 3.7366,-4.2559 10.2303,-4.6894 14.5041,-0.9684 4.2738,3.721 4.7092,10.1879 0.9724,14.4438 z" />
   <path style="fill:#ff5876;fill-rule:evenodd" d="m 26.7107,23.4189 c -1.7625,2.0074 -4.8258,2.212 -6.8416,0.4567 -2.0159,-1.7553 -2.2214,-4.8056 -0.4587,-6.8133 1.7627,-2.0075 4.8257,-2.2118 6.8416,-0.4568 2.0161,1.7554 2.2214,4.8056 0.4587,6.8134 z" />
</svg>
