<?xml version="1.0" standalone="no"?>
<!DOCTYPE svg PUBLIC "-//W3C//DTD SVG 20010904//EN"
 "http://www.w3.org/TR/2001/REC-SVG-20010904/DTD/svg10.dtd">
<svg version="1.0" xmlns="http://www.w3.org/2000/svg"
 width="1024.000000pt" height="1024.000000pt" viewBox="0 0 1024.000000 1024.000000"
 preserveAspectRatio="xMidYMid meet">
<metadata>
Created by potrace 1.14, written by Peter Selinger 2001-2017
</metadata>
<g transform="translate(0.000000,1024.000000) scale(0.100000,-0.100000)"
fill="#000000" stroke="none">
<path d="M5006 10215 c-28 -24 -30 -31 -31 -101 -1 -59 3 -78 15 -87 31 -23
50 -59 40 -77 -13 -23 -109 -19 -127 6 -17 24 -100 28 -105 5 -3 -13 -2 -173
1 -206 1 -6 20 -10 42 -10 30 1 46 7 59 23 15 18 29 22 74 22 43 0 56 -3 56
-15 0 -11 -7 -14 -24 -11 -19 3 -31 -6 -62 -46 -21 -28 -43 -56 -49 -62 -13
-14 -12 -225 1 -234 5 -4 22 -24 37 -44 27 -36 27 -38 7 -38 -11 0 -35 6 -53
13 -48 21 -98 9 -136 -31 -23 -25 -23 -29 -18 -171 4 -120 3 -139 -7 -110 -17
49 -55 132 -100 219 -21 41 -43 84 -49 95 -27 52 -82 69 -168 52 -57 -11 -82
-29 -93 -64 -4 -13 -10 -23 -14 -24 -101 -11 -308 -98 -433 -182 -62 -42 -129
-102 -129 -115 0 -5 -6 -15 -14 -21 -34 -28 -90 -180 -99 -266 -2 -17 -5 -35
-8 -40 -7 -13 -3 -211 6 -250 3 -16 8 -44 10 -61 14 -93 116 -334 173 -405 7
-9 11 -29 8 -44 -10 -53 49 -140 79 -115 22 18 39 -7 38 -57 -1 -26 -2 -61 -3
-77 0 -16 3 -32 8 -35 22 -16 72 -98 72 -118 0 -13 3 -23 8 -23 4 0 7 -10 8
-22 0 -13 4 -39 8 -58 6 -28 8 -86 4 -119 -5 -49 28 -92 102 -133 40 -21 109
-47 149 -54 30 -6 28 -22 -9 -96 -34 -67 -55 -101 -105 -166 -17 -22 -130
-136 -156 -157 -25 -21 -35 -27 -109 -67 -153 -83 -371 -97 -491 -30 -23 12
-43 36 -61 74 -27 55 -76 209 -83 260 -2 15 -6 35 -9 45 -2 10 -7 39 -11 65
-3 25 -12 65 -20 87 -8 23 -14 43 -14 46 -2 37 -56 154 -104 224 -69 104 -198
210 -312 258 -94 39 -106 43 -116 38 -5 -4 -9 -2 -9 3 0 5 -11 8 -25 7 -14 -2
-25 0 -25 3 0 18 -212 -4 -274 -28 -15 -5 -26 -7 -26 -4 0 4 -7 1 -15 -6 -8
-7 -15 -10 -15 -7 0 3 -16 -1 -35 -9 -19 -8 -37 -14 -40 -14 -3 0 -21 -7 -41
-15 -20 -8 -39 -15 -42 -15 -13 0 -138 -66 -161 -85 -140 -113 -156 -144 -148
-274 4 -53 9 -107 11 -121 5 -25 16 -144 19 -208 2 -18 0 -37 -3 -42 -7 -11
-59 -20 -145 -24 -97 -6 -233 49 -422 170 -29 19 -53 31 -53 28 0 -3 -7 2 -16
10 -8 9 -22 16 -30 16 -8 0 -14 4 -14 8 0 12 -85 32 -138 32 -56 0 -99 -11
-212 -55 -58 -23 -95 -31 -115 -28 -16 3 -66 29 -110 58 -113 73 -125 76 -211
51 -67 -19 -71 -22 -70 -48 0 -20 8 -30 26 -37 14 -5 52 -35 86 -67 78 -75 92
-87 129 -102 26 -11 98 -24 130 -23 29 0 140 17 140 21 0 5 47 12 92 14 66 3
88 -9 36 -19 -49 -11 -42 -8 -87 -28 -21 -9 -42 -17 -47 -17 -5 0 -9 -4 -9 -8
0 -4 -13 -15 -29 -25 -42 -25 -109 -95 -139 -146 -15 -25 -27 -48 -28 -51 -2
-13 -46 -105 -52 -110 -4 -3 -14 -18 -22 -34 -22 -42 -137 -156 -158 -156 -5
0 -7 -11 -5 -24 5 -25 28 -41 44 -30 5 3 26 8 46 10 94 12 236 90 320 178 136
140 187 186 204 186 10 0 20 4 23 9 6 9 114 7 153 -2 12 -3 72 -30 135 -60
183 -88 184 -88 274 -92 87 -3 160 9 274 46 79 26 192 78 202 93 4 6 8 8 8 4
0 -7 59 29 87 52 7 5 16 10 20 10 9 0 57 42 142 123 52 49 101 116 109 147 10
39 1 152 -17 215 -11 38 -18 71 -16 74 7 7 98 -51 122 -78 35 -40 66 -114 80
-196 12 -74 86 -286 118 -340 34 -58 123 -154 178 -191 23 -16 44 -31 47 -34
23 -24 184 -99 275 -128 101 -33 129 -40 169 -46 21 -4 41 -8 45 -11 4 -2 27
-6 52 -9 24 -4 60 -9 79 -12 19 -3 52 -6 73 -6 21 -1 40 -4 42 -8 3 -5 20 -5
37 -1 18 4 44 5 58 1 41 -10 210 3 313 24 15 3 37 8 50 10 207 39 466 199 612
377 76 94 163 246 209 366 l27 70 138 1 139 1 12 -32 c41 -105 101 -230 113
-235 4 -2 7 -8 7 -13 0 -11 59 -97 105 -154 33 -40 90 -99 142 -146 38 -34
190 -133 196 -128 3 2 13 -3 23 -12 20 -17 114 -55 127 -51 4 1 7 -3 7 -10 0
-6 3 -9 6 -5 3 3 25 -1 47 -9 23 -8 58 -17 77 -21 44 -7 65 -11 65 -13 0 -1
18 -3 40 -5 22 -3 58 -7 80 -10 68 -8 262 -4 355 9 19 3 55 7 80 10 25 3 56 8
70 12 14 3 39 8 55 11 100 17 327 107 429 170 74 45 181 150 223 218 43 70
117 286 137 399 7 39 40 115 58 137 26 29 111 89 127 89 6 0 11 -4 11 -10 0
-5 -5 -10 -11 -10 -5 0 -7 -4 -4 -10 3 -5 3 -16 -2 -22 -4 -7 -8 -21 -9 -30
-1 -10 -2 -19 -4 -20 -7 -10 -12 -54 -13 -119 0 -68 2 -79 30 -120 37 -53 100
-118 169 -174 61 -51 136 -100 147 -97 4 1 10 -5 13 -13 4 -8 14 -15 23 -15 9
0 21 -4 27 -9 32 -30 303 -119 324 -106 6 3 10 2 10 -3 0 -12 117 -13 175 0
28 5 106 37 175 70 69 33 131 61 138 61 6 0 12 3 12 7 0 8 6 9 97 14 53 2 76
0 84 -10 6 -8 17 -14 25 -14 13 0 63 -47 178 -168 32 -34 81 -77 110 -95 48
-32 143 -76 176 -82 8 -2 15 -4 15 -5 0 -1 11 -3 25 -6 14 -2 38 -6 53 -9 22
-4 30 0 36 18 8 18 4 26 -17 42 -75 54 -139 133 -180 220 -66 138 -71 145
-134 214 -41 43 -139 108 -178 116 -8 2 -29 8 -47 14 -17 5 -34 7 -37 3 -3 -3
-6 0 -6 6 0 23 98 19 185 -6 17 -5 38 -8 48 -6 9 1 17 -1 17 -5 0 -14 163 4
168 19 2 6 11 10 20 10 19 0 48 23 132 104 30 29 65 56 77 60 15 5 20 14 18
32 -3 29 -6 33 -31 38 -11 3 -32 9 -47 15 -16 6 -42 11 -58 11 -33 0 -118 -39
-138 -64 -8 -9 -20 -16 -27 -16 -8 0 -14 -4 -14 -9 0 -13 -60 -34 -95 -34 -16
1 -43 7 -60 14 -16 7 -32 13 -35 14 -3 1 -17 7 -32 13 -167 69 -255 56 -453
-67 -104 -65 -205 -115 -280 -139 -61 -20 -125 -22 -217 -7 -42 6 -50 12 -50
35 0 21 14 201 18 225 2 17 7 78 11 138 4 79 3 107 -6 107 -7 0 -9 4 -6 10 8
12 -120 141 -160 162 -17 8 -46 24 -65 35 -36 20 -141 62 -173 68 -9 2 -22 7
-27 10 -5 3 -18 8 -27 10 -10 2 -43 11 -73 19 -103 27 -214 36 -280 22 -101
-21 -192 -58 -270 -110 -54 -36 -200 -184 -200 -203 0 -7 -4 -13 -10 -13 -5 0
-10 -7 -10 -15 0 -8 -4 -15 -9 -15 -9 0 -26 -48 -23 -62 1 -5 -2 -8 -8 -8 -13
0 -57 -144 -74 -243 -43 -242 -100 -399 -159 -436 -51 -31 -131 -48 -216 -45
-82 3 -95 5 -180 30 -62 18 -171 72 -171 85 0 5 -6 9 -14 9 -18 0 -153 132
-204 200 -36 49 -122 204 -122 221 0 4 30 16 68 28 88 27 171 78 192 118 12
23 15 44 10 75 -5 36 17 181 34 223 2 6 7 20 11 32 4 13 11 20 16 17 5 -3 9 2
9 10 0 9 4 16 9 16 8 0 41 59 41 73 0 3 -6 12 -13 19 -9 10 -10 27 -4 67 7 39
12 50 20 42 16 -16 39 -13 63 7 29 24 38 57 36 119 -2 34 2 54 11 60 7 4 19
23 26 41 8 17 17 32 21 32 3 0 7 6 7 13 0 6 12 37 26 67 74 160 111 396 85
540 -5 25 -10 54 -12 65 -25 137 -95 257 -193 331 -32 24 -62 47 -68 52 -12 9
-166 84 -215 105 -44 18 -125 44 -167 52 -23 5 -34 14 -42 35 -14 43 -86 67
-178 61 -41 -2 -78 -49 -137 -168 -32 -65 -62 -127 -66 -138 -5 -11 -15 -38
-23 -60 l-16 -40 4 65 c6 92 6 192 1 215 -2 11 -5 25 -5 31 -1 12 -65 43 -96
46 -11 1 -39 -4 -62 -11 -53 -18 -78 -10 -63 20 6 11 20 29 31 40 18 18 24 40
19 64 -1 6 -1 47 -1 91 2 75 0 84 -26 115 -64 77 -75 87 -94 84 -12 -2 -19 2
-19 11 0 10 14 14 53 14 43 0 58 -5 76 -24 20 -21 49 -26 101 -17 4 1 5 197 1
222 -2 15 -89 1 -108 -18 -17 -17 -70 -23 -123 -14 -16 3 0 52 25 75 27 25 29
33 30 97 1 64 -2 72 -28 99 -26 27 -36 30 -91 30 -51 0 -66 -4 -90 -25z"/>
<path d="M3215 6078 c-55 -21 -104 -40 -110 -42 -5 -1 -19 -7 -30 -13 -11 -6
-22 -11 -25 -11 -7 -1 -28 -8 -225 -85 -99 -38 -186 -70 -192 -70 -7 0 -13 -4
-13 -9 0 -4 -3 -7 -7 -6 -5 1 -21 -4 -36 -10 -16 -7 -35 -12 -43 -12 -8 0 -14
-5 -14 -11 0 -5 -4 -8 -9 -5 -5 4 -9 -202 -8 -505 0 -504 1 -512 21 -533 26
-27 123 -139 162 -186 30 -36 83 -96 122 -136 12 -13 22 -26 22 -30 0 -4 8
-12 17 -19 19 -14 20 -16 28 -148 10 -164 21 -299 30 -347 2 -14 7 -45 10 -70
2 -25 8 -58 11 -75 3 -16 7 -46 8 -65 0 -19 4 -37 7 -40 4 -3 10 -25 13 -50
10 -66 13 -81 24 -122 5 -20 7 -39 4 -42 -3 -3 0 -6 6 -6 6 0 9 -7 6 -15 -4
-8 -1 -22 6 -30 7 -8 10 -15 7 -15 -3 0 3 -30 14 -67 11 -38 22 -75 24 -83 12
-52 48 -157 56 -164 5 -6 9 -18 9 -27 0 -9 8 -36 19 -60 29 -70 34 -84 33 -91
-1 -5 3 -8 10 -8 6 0 9 -3 5 -6 -5 -6 129 -283 143 -294 4 -3 17 -24 30 -48
13 -23 27 -42 31 -42 4 0 9 -8 11 -18 5 -17 2 -17 -41 -4 -25 7 -55 18 -66 22
-11 5 -31 12 -45 16 -36 10 -195 72 -267 105 -34 16 -73 31 -85 34 l-23 6 2
-113 c3 -213 21 -357 73 -573 12 -49 23 -100 25 -111 1 -12 8 -30 14 -41 5
-11 12 -31 15 -44 22 -107 187 -474 238 -529 13 -14 22 -27 22 -30 -2 -6 55
-89 73 -108 7 -7 13 -16 13 -20 0 -4 17 -25 36 -47 112 -125 213 -222 282
-269 23 -16 42 -33 42 -37 0 -5 4 -9 10 -9 5 0 40 -20 77 -44 74 -47 253 -140
253 -130 0 3 7 -2 16 -10 8 -9 22 -16 31 -16 9 0 46 -11 84 -25 72 -26 247
-70 314 -79 34 -4 80 -14 120 -26 54 -15 165 -70 165 -81 0 -5 6 -9 13 -9 34
0 135 -138 162 -221 10 -28 23 -49 31 -49 8 0 14 -4 14 -10 0 -6 30 -10 70
-10 40 0 70 4 70 10 0 6 6 10 13 10 7 0 28 36 46 80 25 61 45 93 86 133 65 64
68 67 130 100 73 39 95 46 255 78 185 37 170 33 275 69 50 17 96 31 103 32 6
1 12 4 12 8 0 4 6 7 13 7 24 0 224 105 312 165 108 74 176 130 268 223 75 77
197 227 197 244 0 6 4 11 8 11 5 0 14 10 20 23 6 12 23 40 36 62 42 68 112
206 141 280 15 39 30 75 33 80 4 6 7 16 8 23 2 8 6 21 10 30 4 9 8 19 9 22 1
3 4 12 7 20 31 88 85 293 101 390 16 91 19 107 23 140 12 99 23 375 16 397 -2
8 -9 9 -20 3 -32 -17 -127 -58 -222 -95 -52 -20 -104 -40 -115 -45 -30 -13
-153 -50 -165 -50 -6 0 0 15 14 33 15 19 26 39 26 45 0 7 4 12 8 12 5 0 22 27
38 60 16 33 32 60 37 60 4 0 7 4 7 9 0 5 22 55 49 112 46 98 110 256 115 282
1 7 7 21 13 32 6 11 11 22 11 25 0 3 5 23 11 45 6 22 11 43 11 48 0 4 6 23 14
42 8 19 13 35 11 35 -3 0 0 12 6 27 10 27 62 255 73 323 3 19 8 46 11 60 3 14
7 42 10 64 3 21 7 50 10 65 2 14 7 49 10 76 3 28 7 66 10 85 8 52 15 162 19
272 4 103 12 122 81 194 11 12 36 40 55 63 19 23 42 49 50 58 84 90 172 204
179 233 5 19 9 251 9 515 l-1 480 -76 28 c-71 27 -230 88 -276 107 -11 4 -58
22 -105 40 -47 18 -94 36 -105 40 -21 9 -114 45 -201 78 l-51 19 -30 -31
c-114 -119 -328 -236 -518 -282 -25 -6 -82 -16 -105 -19 -14 -2 -38 -5 -55 -8
-16 -3 -50 -8 -75 -11 -25 -3 -61 -8 -80 -11 -45 -6 -111 -13 -180 -20 -30 -3
-77 -8 -105 -11 -60 -7 -138 -12 -263 -18 -51 -3 -96 -7 -100 -9 -21 -12 -599
3 -731 19 -25 3 -70 7 -100 9 -31 3 -74 7 -96 10 -22 2 -68 7 -103 10 -35 4
-71 8 -81 10 -10 2 -42 6 -72 10 -30 3 -67 9 -84 12 -16 3 -41 6 -55 8 -44 5
-88 15 -114 25 -15 5 -26 8 -26 5 0 -2 -19 3 -42 11 -24 9 -47 17 -53 18 -5 2
-23 9 -40 16 -16 7 -33 13 -37 12 -5 -1 -8 3 -8 10 0 6 -3 9 -6 5 -6 -6 -77
31 -126 64 -14 11 -31 19 -36 19 -6 0 -12 3 -14 8 -1 4 -23 23 -48 42 -24 19
-58 49 -75 66 l-30 32 -100 -40z"/>
</g>
</svg>
