<svg width="24" height="24" viewBox="0 0 24 24" fill="none" xmlns="http://www.w3.org/2000/svg">
<path d="M8 12.5C7.72386 12.5 7.5 12.7239 7.5 13C7.5 13.2761 7.72386 13.5 8 13.5H16C16.2761 13.5 16.5 13.2761 16.5 13C16.5 12.7239 16.2761 12.5 16 12.5H8Z" fill="#231F20"/>
<path d="M7.5 17C7.5 16.7239 7.72386 16.5 8 16.5H16C16.2761 16.5 16.5 16.7239 16.5 17C16.5 17.2761 16.2761 17.5 16 17.5H8C7.72386 17.5 7.5 17.2761 7.5 17Z" fill="#231F20"/>
<path d="M8 8.5C7.72386 8.5 7.5 8.72386 7.5 9C7.5 9.27614 7.72386 9.5 8 9.5H10C10.2761 9.5 10.5 9.27614 10.5 9C10.5 8.72386 10.2761 8.5 10 8.5H8Z" fill="#231F20"/>
<path fill-rule="evenodd" clip-rule="evenodd" d="M14 2H6C5.46957 2 4.96086 2.21071 4.58579 2.58579C4.21071 2.96086 4 3.46957 4 4V20C4 20.5304 4.21071 21.0391 4.58579 21.4142C4.96086 21.7893 5.46957 22 6 22H18C18.5304 22 19.0391 21.7893 19.4142 21.4142C19.7893 21.0391 20 20.5304 20 20V8L14 2ZM6 3H13.5V8C13.5 8.27614 13.7239 8.5 14 8.5H19V20C19 20.2652 18.8946 20.5196 18.7071 20.7071C18.5196 20.8946 18.2652 21 18 21H6C5.73478 21 5.48043 20.8946 5.29289 20.7071C5.10536 20.5196 5 20.2652 5 20V4C5 3.73478 5.10536 3.48043 5.29289 3.29289C5.48043 3.10536 5.73478 3 6 3ZM14.5 3.91421L18.0858 7.5H14.5V3.91421Z" fill="#231F20"/>
</svg>
