<svg width="24" height="24" viewBox="0 0 24 24" fill="none" xmlns="http://www.w3.org/2000/svg">
<path d="M21.8387 5.15941C22.1793 5.51057 22.4212 5.94541 22.54 6.42C22.8572 8.1787 23.0112 9.96295 23 11.75C23.0063 13.5103 22.8524 15.2676 22.54 17C22.4212 17.4746 22.1793 17.9094 21.8387 18.2606C21.498 18.6118 21.0708 18.8668 20.6 19C18.88 19.46 12 19.46 12 19.46C12 19.46 5.12 19.46 3.4 19C2.93882 18.8738 2.51798 18.6308 2.17814 18.2945C1.83831 17.9581 1.59096 17.5398 1.46 17.08C1.14277 15.3213 0.988779 13.537 0.999999 11.75C0.991235 9.97631 1.14521 8.20556 1.46 6.46C1.57879 5.98541 1.82072 5.55057 2.16135 5.19941C2.50198 4.84824 2.92925 4.59318 3.4 4.46C5.12 4 12 4 12 4L12 5L11.9245 5.00011C11.8745 5.00022 11.8006 5.00044 11.7057 5.00089C11.516 5.00178 11.2425 5.00356 10.9088 5.00713C10.2411 5.01427 9.33398 5.02855 8.3747 5.05706C7.41383 5.08561 6.4086 5.12821 5.54212 5.19141C4.65401 5.25619 3.99412 5.33761 3.66535 5.42419C3.36665 5.51 3.09558 5.67253 2.87914 5.89566C2.66801 6.11333 2.5161 6.38119 2.43761 6.67375C2.13807 8.34737 1.99159 10.0448 1.99999 11.7451L2.00004 11.7563C1.98932 13.4635 2.1347 15.1681 2.43447 16.8487C2.5211 17.1264 2.67453 17.3788 2.88158 17.5837C3.09849 17.7984 3.36694 17.9537 3.66114 18.0347C3.98846 18.1217 4.6502 18.2035 5.54212 18.2686C6.4086 18.3318 7.41383 18.3744 8.3747 18.4029C9.33398 18.4314 10.2411 18.4457 10.9088 18.4529C11.2425 18.4564 11.516 18.4582 11.7057 18.4591C11.8006 18.4596 11.8745 18.4598 11.9245 18.4599H12.0755C12.1255 18.4598 12.1994 18.4596 12.2943 18.4591C12.484 18.4582 12.7575 18.4564 13.0912 18.4529C13.7589 18.4457 14.666 18.4314 15.6253 18.4029C16.5862 18.3744 17.5914 18.3318 18.4579 18.2686C19.346 18.2038 20.0059 18.1224 20.3347 18.0358C20.6333 17.95 20.9044 17.7875 21.1209 17.5643C21.332 17.3467 21.4839 17.0788 21.5624 16.7863C21.8596 15.1253 22.0061 13.4409 22 11.7536L22 11.7437C22.0107 10.0306 21.8643 8.32008 21.5624 6.63377C21.4839 6.3412 21.332 6.07333 21.1209 5.85566C20.9069 5.63509 20.6396 5.47373 20.3449 5.38717C20.005 5.3072 19.3426 5.23348 18.4642 5.17498C17.5959 5.11716 16.5893 5.07822 15.6279 5.05213C14.6679 5.02609 13.7602 5.01304 13.0921 5.00651C12.7582 5.00325 12.4846 5.00162 12.2947 5.00081L12.0757 5.0001L12.001 5L12 4C12 4 18.88 4 20.6 4.42C21.0708 4.55318 21.498 4.80824 21.8387 5.15941Z" fill="black"/>
<path fill-rule="evenodd" clip-rule="evenodd" d="M9.99717 8.04536C9.8424 7.95734 9.6525 7.95827 9.49859 8.0478C9.34468 8.13733 9.25 8.30194 9.25 8.48V15.02C9.25 15.198 9.34468 15.3627 9.49859 15.4522C9.6525 15.5417 9.8424 15.5426 9.99717 15.4546L15.7472 12.1846C15.9035 12.0957 16 11.9298 16 11.75C16 11.5702 15.9035 11.4042 15.7472 11.3154L9.99717 8.04536ZM14.4886 11.75L10.25 14.1604V9.33954L14.4886 11.75Z" fill="black"/>
</svg>
